<svg width="33" height="33" viewBox="0 0 33 33" fill="none" xmlns="http://www.w3.org/2000/svg">
<g id="EventRounded">
<path id="Vector" d="M21.8333 17.8333H17.8333C17.1 17.8333 16.5 18.4333 16.5 19.1666V23.1666C16.5 23.9 17.1 24.5 17.8333 24.5H21.8333C22.5667 24.5 23.1667 23.9 23.1667 23.1666V19.1666C23.1667 18.4333 22.5667 17.8333 21.8333 17.8333ZM21.8333 4.49996V5.83329H11.1667V4.49996C11.1667 3.76663 10.5667 3.16663 9.83333 3.16663C9.1 3.16663 8.5 3.76663 8.5 4.49996V5.83329H7.16667C5.68667 5.83329 4.51333 7.03329 4.51333 8.49996L4.5 27.1666C4.5 28.6333 5.68667 29.8333 7.16667 29.8333H25.8333C27.3 29.8333 28.5 28.6333 28.5 27.1666V8.49996C28.5 7.03329 27.3 5.83329 25.8333 5.83329H24.5V4.49996C24.5 3.76663 23.9 3.16663 23.1667 3.16663C22.4333 3.16663 21.8333 3.76663 21.8333 4.49996ZM24.5 27.1666H8.5C7.76667 27.1666 7.16667 26.5666 7.16667 25.8333V12.5H25.8333V25.8333C25.8333 26.5666 25.2333 27.1666 24.5 27.1666Z" fill="#4A148C"/>
</g>
</svg>
