<svg width="28" height="28" viewBox="0 0 28 28" fill="none" xmlns="http://www.w3.org/2000/svg">
<path d="M22.7033 9.33335L23.625 7.29168L25.6667 6.37001C26.1217 6.16001 26.1217 5.51835 25.6667 5.30835L23.625 4.38668L22.7033 2.33335C22.4933 1.87835 21.8517 1.87835 21.6417 2.33335L20.72 4.37501L18.6667 5.29668C18.2117 5.50668 18.2117 6.14835 18.6667 6.35835L20.7083 7.28001L21.63 9.33335C21.84 9.78835 22.4933 9.78835 22.7033 9.33335ZM13.4167 11.0833L11.5617 7.00001C11.1533 6.09001 9.84667 6.09001 9.43834 7.00001L7.58334 11.0833L3.5 12.9383C2.59 13.3583 2.59 14.6533 3.5 15.0617L7.58334 16.9167L9.43834 21C9.85834 21.91 11.1533 21.91 11.5617 21L13.4167 16.9167L17.5 15.0617C18.41 14.6417 18.41 13.3467 17.5 12.9383L13.4167 11.0833ZM21.63 18.6667L20.7083 20.7083L18.6667 21.63C18.2117 21.84 18.2117 22.4817 18.6667 22.6917L20.7083 23.6133L21.63 25.6667C21.84 26.1217 22.4817 26.1217 22.6917 25.6667L23.6133 23.625L25.6667 22.7033C26.1217 22.4933 26.1217 21.8517 25.6667 21.6417L23.625 20.72L22.7033 18.6667C22.4933 18.2117 21.84 18.2117 21.63 18.6667Z" fill="#BF360C"/>
</svg>
