<svg width="33" height="33" viewBox="0 0 33 33" fill="none" xmlns="http://www.w3.org/2000/svg">
<g id="ReceiptFilled">
<path id="Vector" d="M24.5 23.1666H8.5V20.5H24.5V23.1666ZM24.5 17.8333H8.5V15.1666H24.5V17.8333ZM24.5 12.5H8.5V9.83329H24.5V12.5ZM4.5 29.8333L6.5 27.8333L8.5 29.8333L10.5 27.8333L12.5 29.8333L14.5 27.8333L16.5 29.8333L18.5 27.8333L20.5 29.8333L22.5 27.8333L24.5 29.8333L26.5 27.8333L28.5 29.8333V3.16663L26.5 5.16663L24.5 3.16663L22.5 5.16663L20.5 3.16663L18.5 5.16663L16.5 3.16663L14.5 5.16663L12.5 3.16663L10.5 5.16663L8.5 3.16663L6.5 5.16663L4.5 3.16663V29.8333Z" fill="#0E7716"/>
</g>
</svg>
