<svg width="33" height="33" viewBox="0 0 33 33" fill="none" xmlns="http://www.w3.org/2000/svg">
<g id="NoteAltRounded">
<g id="Group">
<path id="Vector" d="M25.8333 4.50004H20.26C19.7 2.95337 18.2333 1.83337 16.5 1.83337C14.7667 1.83337 13.3 2.95337 12.74 4.50004H7.16667C5.7 4.50004 4.5 5.70004 4.5 7.16671V25.8334C4.5 27.3 5.7 28.5 7.16667 28.5H25.8333C27.3 28.5 28.5 27.3 28.5 25.8334V7.16671C28.5 5.70004 27.3 4.50004 25.8333 4.50004ZM16.5 4.16671C17.0467 4.16671 17.5 4.62004 17.5 5.16671C17.5 5.71337 17.0467 6.16671 16.5 6.16671C15.9533 6.16671 15.5 5.71337 15.5 5.16671C15.5 4.62004 15.9533 4.16671 16.5 4.16671ZM12.3667 23.1667H10.5C10.1267 23.1667 9.83333 22.8734 9.83333 22.5V20.5934C9.83333 20.42 9.9 20.2467 10.0333 20.1267L17.78 12.38L20.6067 15.2067L12.8333 22.98C12.7133 23.1 12.54 23.1667 12.3667 23.1667ZM22.9667 12.86L21.5533 14.2734L18.7267 11.4467L20.14 10.0334C20.4067 9.76671 20.82 9.76671 21.0867 10.0334L22.9667 11.9134C23.2333 12.18 23.2333 12.5934 22.9667 12.86Z" fill="#311B92"/>
</g>
</g>
</svg>
