<svg width="32" height="33" viewBox="0 0 32 33" fill="none" xmlns="http://www.w3.org/2000/svg">
<g id="ImportantDevicesRounded">
<path id="Vector" d="M30.6667 15.18L24 15.1666C23.2667 15.1666 22.6667 15.7666 22.6667 16.5V28.5C22.6667 29.2333 23.2667 29.8333 24 29.8333H30.6667C31.4 29.8333 32 29.2333 32 28.5V16.5C32 15.7666 31.4 15.18 30.6667 15.18ZM30.6667 27.1666H24V17.8333H30.6667V27.1666ZM26.6667 3.16663H2.66667C1.2 3.16663 0 4.36663 0 5.83329V21.8333C0 23.3 1.2 24.5 2.66667 24.5H12V27.1666H10.6667C9.93333 27.1666 9.33333 27.7666 9.33333 28.5C9.33333 29.2333 9.93333 29.8333 10.6667 29.8333H18.6667C19.4 29.8333 20 29.2333 20 28.5C20 27.7666 19.4 27.1666 18.6667 27.1666H17.3333V24.5H18.6667C19.4 24.5 20 23.9 20 23.1666C20 22.4333 19.4 21.8333 18.6667 21.8333H4C3.26667 21.8333 2.66667 21.2333 2.66667 20.5V7.16663C2.66667 6.43329 3.26667 5.83329 4 5.83329H25.3333C26.0667 5.83329 26.6667 6.43329 26.6667 7.16663V11.1666C26.6667 11.9 27.2667 12.5 28 12.5C28.7333 12.5 29.3333 11.9 29.3333 11.1666V5.83329C29.3333 4.36663 28.1333 3.16663 26.6667 3.16663ZM15.96 12.5L14.6667 8.49996L13.3733 12.5H9.33333L12.6267 14.8466L11.3733 18.7266L14.6667 16.3266L17.96 18.7266L16.7067 14.8466L20 12.5H15.96Z" fill="#E65100"/>
</g>
</svg>
