<svg width="141" height="44" viewBox="0 0 141 44" fill="none" xmlns="http://www.w3.org/2000/svg">
<path d="M31.3226 31.3044C32.9995 34.1 34.6577 36.8639 36.3147 39.6248C28.9774 45.0215 17.562 45.6737 9.11136 39.4589C-0.61347 32.3015 -2.21183 20.0888 2.99469 11.2976C8.98294 1.18585 20.1889 -1.05043 27.404 0.589353C27.2089 0.996603 22.8876 9.60933 22.8876 9.60933C22.8876 9.60933 22.546 9.63089 22.3527 9.63449C20.2201 9.72133 18.6317 10.198 16.9292 11.0437C15.0614 11.9801 13.4607 13.3417 12.2671 15.0096C11.0735 16.6775 10.3232 18.6009 10.082 20.6117C9.83024 22.6509 10.1237 24.7181 10.9348 26.618C11.6205 28.2242 12.5905 29.6508 13.8909 30.8552C15.8857 32.7046 18.2596 33.8497 21.0112 34.2288C23.6169 34.5881 26.1229 34.2324 28.4712 33.0987C29.3521 32.674 30.1014 32.2051 30.9773 31.5619C31.0888 31.4924 31.188 31.4044 31.3226 31.3044Z" fill="#838383"/>
<path d="M31.3387 6.78864C30.9129 6.38618 30.5183 6.01486 30.1256 5.64115C29.8912 5.41836 29.6655 5.18659 29.4255 4.96919C29.3395 4.89073 29.2385 4.78353 29.2385 4.78353C29.2385 4.78353 29.3202 4.61704 29.3551 4.54876C29.8145 3.663 30.5345 3.01559 31.3886 2.50054C32.333 1.92667 33.4333 1.63468 34.5504 1.66148C35.9798 1.68843 37.3089 2.0304 38.4304 2.95151C39.2582 3.63125 39.6827 4.49366 39.7576 5.52317C39.8822 7.25997 39.1342 8.59012 37.6486 9.51841C36.7759 10.0646 35.8346 10.4868 34.8908 10.9869C34.3702 11.263 33.9251 11.5055 33.4165 12.005C32.9689 12.5063 32.9471 12.9788 32.9471 12.9788L39.7089 12.9704V15.8637H29.2716C29.2716 15.8637 29.2716 15.6661 29.2716 15.584C29.2317 14.1623 29.4043 12.8243 30.082 11.5331C30.7054 10.3485 31.6741 9.48128 32.838 8.81351C33.7344 8.29905 34.6782 7.86126 35.5765 7.3492C36.1307 7.03359 36.5222 6.57064 36.5191 5.89928C36.5191 5.32314 36.0827 4.81108 35.4593 4.65117C33.9894 4.27028 32.4932 4.87816 31.7152 6.17058C31.6018 6.35923 31.4858 6.54668 31.3387 6.78864Z" fill="#838383"/>
<path d="M44.4194 28.2348L38.7211 18.7806H27.4446L21.7095 28.3324H33.0688L38.6743 37.7417L44.4194 28.2348Z" fill="#838383"/>
<path d="M55.4794 30L57.3394 23.92L52.4194 20.4H58.4994L60.4194 14L62.3394 20.4H68.4194L63.4994 23.92L65.3594 30L60.4194 26.24L55.4794 30Z" fill="#7242EE"/>
<path d="M73.4794 30L75.3394 23.92L70.4194 20.4H76.4994L78.4194 14L80.3394 20.4H86.4194L81.4994 23.92L83.3594 30L78.4194 26.24L73.4794 30Z" fill="#7242EE"/>
<path d="M91.4794 30L93.3394 23.92L88.4194 20.4H94.4994L96.4194 14L98.3394 20.4H104.419L99.4994 23.92L101.359 30L96.4194 26.24L91.4794 30Z" fill="#7242EE"/>
<path d="M109.479 30L111.339 23.92L106.419 20.4H112.499L114.419 14L116.339 20.4H122.419L117.499 23.92L119.359 30L114.419 26.24L109.479 30Z" fill="#7242EE"/>
<path d="M127.479 30L129.339 23.92L124.419 20.4H130.499L132.419 14L134.339 20.4H140.419L135.499 23.92L137.359 30L132.419 26.24L127.479 30Z" fill="#7242EE"/>
</svg>
