<svg width="125" height="40" viewBox="0 0 125 40" fill="none" xmlns="http://www.w3.org/2000/svg">
<path d="M35.7807 19.3846C35.1641 19.0769 35.0099 18.4615 35.1641 18.1538L36.7057 12.6154L31.3099 13.6923C31.1557 13.6923 30.5391 13.6923 30.3849 12.6154L29.9224 10.7692L26.2224 15.0769C26.2224 15.0769 23.7557 17.6923 24.5266 13.6923L26.0682 5.23077L23.1391 6.76923C22.9849 6.76923 22.3682 6.92308 21.5974 5.38462L18.9766 0L16.2016 5.07692C15.4307 6.61538 14.8141 6.46154 14.6599 6.46154L11.7307 4.92308L13.2724 13.3846C14.0432 17.3846 11.5766 14.7692 11.5766 14.7692L7.87656 10.4615L7.41406 12.3077C7.10573 13.3846 6.64323 13.3846 6.48906 13.3846L1.09323 12.3077L2.6349 17.8462C2.6349 18.3077 2.6349 18.7692 2.01823 19.0769L0.476562 20C0.476562 20 6.64323 24.9231 8.64739 26.6154C9.10989 26.9231 10.0349 27.8462 9.72656 28.9231L8.95573 31.0769L17.4349 29.8462C17.8974 29.8462 18.8224 29.8462 18.6682 31.2308L18.2057 40H19.7474L19.2849 31.2308C19.2849 29.8462 20.2099 29.8462 20.5182 29.8462L28.9974 31.0769L28.2266 28.9231C27.9182 27.8462 28.8432 26.9231 29.3057 26.6154C31.3099 24.9231 37.4766 20 37.4766 20L35.7807 19.3846Z" fill="#666666"/>
<path d="M54.8984 12.0469H52.0391V10.0703H54.8984C55.3203 10.0703 55.6589 10 55.9141 9.85938C56.1745 9.71875 56.3646 9.52604 56.4844 9.28125C56.6094 9.03125 56.6719 8.75 56.6719 8.4375C56.6719 8.11458 56.6094 7.8151 56.4844 7.53906C56.3646 7.25781 56.1745 7.03125 55.9141 6.85938C55.6589 6.6875 55.3203 6.60156 54.8984 6.60156H52.9609V16H50.4141V4.625H54.8984C55.8047 4.625 56.5807 4.78906 57.2266 5.11719C57.8776 5.44531 58.375 5.89583 58.7188 6.46875C59.0677 7.03646 59.2422 7.6875 59.2422 8.42188C59.2422 9.15625 59.0677 9.79427 58.7188 10.3359C58.375 10.8776 57.8776 11.2995 57.2266 11.6016C56.5807 11.8984 55.8047 12.0469 54.8984 12.0469ZM63.82 4.625V16H61.2809V4.625H63.82ZM70.6791 12.0469H67.8197V10.0703H70.6791C71.1009 10.0703 71.4395 10 71.6947 9.85938C71.9551 9.71875 72.1452 9.52604 72.265 9.28125C72.39 9.03125 72.4525 8.75 72.4525 8.4375C72.4525 8.11458 72.39 7.8151 72.265 7.53906C72.1452 7.25781 71.9551 7.03125 71.6947 6.85938C71.4395 6.6875 71.1009 6.60156 70.6791 6.60156H68.7416V16H66.1947V4.625H70.6791C71.5853 4.625 72.3614 4.78906 73.0072 5.11719C73.6582 5.44531 74.1556 5.89583 74.4994 6.46875C74.8483 7.03646 75.0228 7.6875 75.0228 8.42188C75.0228 9.15625 74.8483 9.79427 74.4994 10.3359C74.1556 10.8776 73.6582 11.2995 73.0072 11.6016C72.3614 11.8984 71.5853 12.0469 70.6791 12.0469ZM84.6241 14.0312V16H78.5694V14.0312H84.6241ZM79.4366 4.625V16H76.8897V4.625H79.4366ZM83.8428 9.20312V11.1094H78.5694V9.20312H83.8428ZM84.6319 4.625V6.60156H78.5694V4.625H84.6319ZM89.7956 16H87.2956L87.3112 14.0312H89.7956C90.3633 14.0312 90.8425 13.901 91.2331 13.6406C91.6237 13.375 91.9206 12.9844 92.1237 12.4688C92.3269 11.9479 92.4284 11.3151 92.4284 10.5703V10.0469C92.4284 9.48438 92.3711 8.98958 92.2566 8.5625C92.142 8.13021 91.9727 7.76823 91.7487 7.47656C91.5248 7.1849 91.2461 6.96615 90.9128 6.82031C90.5847 6.67448 90.2071 6.60156 89.78 6.60156H87.2487V4.625H89.78C90.5508 4.625 91.254 4.75521 91.8894 5.01562C92.53 5.27604 93.0821 5.64844 93.5456 6.13281C94.0144 6.61719 94.3764 7.1901 94.6316 7.85156C94.8868 8.51302 95.0144 9.25 95.0144 10.0625V10.5703C95.0144 11.3776 94.8868 12.1146 94.6316 12.7812C94.3764 13.4427 94.0144 14.0156 93.5456 14.5C93.0821 14.9792 92.5326 15.349 91.8972 15.6094C91.2618 15.8698 90.5612 16 89.7956 16ZM88.7409 4.625V16H86.1941V4.625H88.7409ZM101.444 6.78906L98.5062 16H95.7875L99.9984 4.625H101.717L101.444 6.78906ZM103.881 16L100.936 6.78906L100.631 4.625H102.373L106.6 16H103.881ZM103.756 11.7656V13.7344H97.8266V11.7656H103.756Z" fill="#666666"/>
<path d="M57.6641 31.3828H59.1641C59.0859 32.1016 58.8802 32.7448 58.5469 33.3125C58.2135 33.8802 57.7422 34.3307 57.1328 34.6641C56.5234 34.9922 55.763 35.1562 54.8516 35.1562C54.1849 35.1562 53.5781 35.0312 53.0312 34.7812C52.4896 34.5312 52.0234 34.1771 51.6328 33.7188C51.2422 33.2552 50.9401 32.7005 50.7266 32.0547C50.5182 31.4036 50.4141 30.6797 50.4141 29.8828V28.75C50.4141 27.9531 50.5182 27.2318 50.7266 26.5859C50.9401 25.9349 51.2448 25.3776 51.6406 24.9141C52.0417 24.4505 52.5234 24.0938 53.0859 23.8438C53.6484 23.5938 54.2812 23.4688 54.9844 23.4688C55.8438 23.4688 56.5703 23.6302 57.1641 23.9531C57.7578 24.276 58.2188 24.724 58.5469 25.2969C58.8802 25.8646 59.0859 26.5234 59.1641 27.2734H57.6641C57.5911 26.7422 57.4557 26.2865 57.2578 25.9062C57.0599 25.5208 56.7786 25.224 56.4141 25.0156C56.0495 24.8073 55.5729 24.7031 54.9844 24.7031C54.4792 24.7031 54.0339 24.7995 53.6484 24.9922C53.2682 25.1849 52.9479 25.4583 52.6875 25.8125C52.4323 26.1667 52.2396 26.5911 52.1094 27.0859C51.9792 27.5807 51.9141 28.1302 51.9141 28.7344V29.8828C51.9141 30.4401 51.9714 30.9635 52.0859 31.4531C52.2057 31.9427 52.3854 32.3724 52.625 32.7422C52.8646 33.112 53.1693 33.4036 53.5391 33.6172C53.9089 33.8255 54.3464 33.9297 54.8516 33.9297C55.4922 33.9297 56.0026 33.8281 56.3828 33.625C56.763 33.4219 57.0495 33.1302 57.2422 32.75C57.4401 32.3698 57.5807 31.9141 57.6641 31.3828ZM60.9372 30.8672V30.6875C60.9372 30.0781 61.0257 29.513 61.2028 28.9922C61.3799 28.4661 61.6351 28.0104 61.9684 27.625C62.3018 27.2344 62.7054 26.9323 63.1794 26.7188C63.6533 26.5 64.1846 26.3906 64.7731 26.3906C65.3669 26.3906 65.9007 26.5 66.3747 26.7188C66.8539 26.9323 67.2601 27.2344 67.5934 27.625C67.932 28.0104 68.1898 28.4661 68.3669 28.9922C68.544 29.513 68.6325 30.0781 68.6325 30.6875V30.8672C68.6325 31.4766 68.544 32.0417 68.3669 32.5625C68.1898 33.0833 67.932 33.5391 67.5934 33.9297C67.2601 34.3151 66.8565 34.6172 66.3825 34.8359C65.9137 35.0495 65.3825 35.1562 64.7887 35.1562C64.195 35.1562 63.6611 35.0495 63.1872 34.8359C62.7132 34.6172 62.307 34.3151 61.9684 33.9297C61.6351 33.5391 61.3799 33.0833 61.2028 32.5625C61.0257 32.0417 60.9372 31.4766 60.9372 30.8672ZM62.3825 30.6875V30.8672C62.3825 31.2891 62.432 31.6875 62.5309 32.0625C62.6299 32.4323 62.7783 32.7604 62.9762 33.0469C63.1794 33.3333 63.432 33.5599 63.7341 33.7266C64.0361 33.888 64.3877 33.9688 64.7887 33.9688C65.1846 33.9688 65.5309 33.888 65.8278 33.7266C66.1299 33.5599 66.3799 33.3333 66.5778 33.0469C66.7757 32.7604 66.9242 32.4323 67.0231 32.0625C67.1273 31.6875 67.1794 31.2891 67.1794 30.8672V30.6875C67.1794 30.2708 67.1273 29.8776 67.0231 29.5078C66.9242 29.1328 66.7731 28.8021 66.57 28.5156C66.3721 28.224 66.1221 27.9948 65.82 27.8281C65.5231 27.6615 65.1742 27.5781 64.7731 27.5781C64.3773 27.5781 64.0283 27.6615 63.7262 27.8281C63.4294 27.9948 63.1794 28.224 62.9762 28.5156C62.7783 28.8021 62.6299 29.1328 62.5309 29.5078C62.432 29.8776 62.3825 30.2708 62.3825 30.6875ZM72.2025 28.2266V35H70.7494V26.5469H72.1244L72.2025 28.2266ZM71.9056 30.4531L71.2337 30.4297C71.239 29.8516 71.3145 29.3177 71.4603 28.8281C71.6061 28.3333 71.8223 27.9036 72.1087 27.5391C72.3952 27.1745 72.752 26.8932 73.1791 26.6953C73.6061 26.4922 74.1009 26.3906 74.6634 26.3906C75.0593 26.3906 75.4239 26.4479 75.7572 26.5625C76.0905 26.6719 76.3796 26.8464 76.6244 27.0859C76.8692 27.3255 77.0593 27.6328 77.1947 28.0078C77.3301 28.3828 77.3978 28.8359 77.3978 29.3672V35H75.9525V29.4375C75.9525 28.9948 75.877 28.6406 75.7259 28.375C75.5801 28.1094 75.3718 27.9167 75.1009 27.7969C74.8301 27.6719 74.5124 27.6094 74.1478 27.6094C73.7207 27.6094 73.364 27.6849 73.0775 27.8359C72.791 27.987 72.5619 28.1953 72.39 28.4609C72.2181 28.7266 72.0931 29.0312 72.015 29.375C71.9421 29.7135 71.9056 30.0729 71.9056 30.4531ZM77.3822 29.6562L76.4134 29.9531C76.4186 29.4896 76.4942 29.0443 76.64 28.6172C76.791 28.1901 77.0072 27.8099 77.2884 27.4766C77.5749 27.1432 77.9265 26.8802 78.3431 26.6875C78.7598 26.4896 79.2364 26.3906 79.7728 26.3906C80.2259 26.3906 80.627 26.4505 80.9759 26.5703C81.3301 26.6901 81.627 26.875 81.8666 27.125C82.1114 27.3698 82.2962 27.6849 82.4212 28.0703C82.5462 28.4557 82.6087 28.9141 82.6087 29.4453V35H81.1556V29.4297C81.1556 28.9557 81.0801 28.5885 80.9291 28.3281C80.7832 28.0625 80.5749 27.8776 80.3041 27.7734C80.0384 27.6641 79.7207 27.6094 79.3509 27.6094C79.0332 27.6094 78.752 27.6641 78.5072 27.7734C78.2624 27.8828 78.0567 28.0339 77.89 28.2266C77.7233 28.4141 77.5957 28.6302 77.5072 28.875C77.4239 29.1198 77.3822 29.3802 77.3822 29.6562ZM86.5616 28.1719V38.25H85.1084V26.5469H86.4366L86.5616 28.1719ZM92.2569 30.7031V30.8672C92.2569 31.4818 92.184 32.0521 92.0381 32.5781C91.8923 33.099 91.6787 33.5521 91.3975 33.9375C91.1215 34.3229 90.7803 34.6224 90.3741 34.8359C89.9678 35.0495 89.5017 35.1562 88.9756 35.1562C88.4392 35.1562 87.9652 35.0677 87.5537 34.8906C87.1423 34.7135 86.7933 34.4557 86.5069 34.1172C86.2204 33.7786 85.9912 33.3724 85.8194 32.8984C85.6527 32.4245 85.5381 31.8906 85.4756 31.2969V30.4219C85.5381 29.7969 85.6553 29.237 85.8272 28.7422C85.9991 28.2474 86.2256 27.8255 86.5069 27.4766C86.7933 27.1224 87.1397 26.8542 87.5459 26.6719C87.9522 26.4844 88.4209 26.3906 88.9522 26.3906C89.4834 26.3906 89.9548 26.4948 90.3662 26.7031C90.7777 26.9062 91.1241 27.1979 91.4053 27.5781C91.6866 27.9583 91.8975 28.4141 92.0381 28.9453C92.184 29.4714 92.2569 30.0573 92.2569 30.7031ZM90.8037 30.8672V30.7031C90.8037 30.2812 90.7595 29.8854 90.6709 29.5156C90.5824 29.1406 90.4444 28.8125 90.2569 28.5312C90.0746 28.2448 89.8402 28.0208 89.5537 27.8594C89.2673 27.6927 88.9261 27.6094 88.5303 27.6094C88.1657 27.6094 87.848 27.6719 87.5772 27.7969C87.3116 27.9219 87.085 28.0911 86.8975 28.3047C86.71 28.513 86.5564 28.7526 86.4366 29.0234C86.322 29.2891 86.236 29.5651 86.1787 29.8516V31.875C86.2829 32.2396 86.4287 32.5833 86.6162 32.9062C86.8037 33.224 87.0537 33.4818 87.3662 33.6797C87.6787 33.8724 88.072 33.9688 88.5459 33.9688C88.9366 33.9688 89.2725 33.888 89.5537 33.7266C89.8402 33.5599 90.0746 33.3333 90.2569 33.0469C90.4444 32.7604 90.5824 32.4323 90.6709 32.0625C90.7595 31.6875 90.8037 31.2891 90.8037 30.8672ZM95.9909 23V35H94.5378V23H95.9909ZM100.202 26.5469V35H98.7484V26.5469H100.202ZM98.6391 24.3047C98.6391 24.0703 98.7094 23.8724 98.85 23.7109C98.9958 23.5495 99.2094 23.4688 99.4906 23.4688C99.7667 23.4688 99.9776 23.5495 100.123 23.7109C100.274 23.8724 100.35 24.0703 100.35 24.3047C100.35 24.5286 100.274 24.7214 100.123 24.8828C99.9776 25.0391 99.7667 25.1172 99.4906 25.1172C99.2094 25.1172 98.9958 25.0391 98.85 24.8828C98.7094 24.7214 98.6391 24.5286 98.6391 24.3047ZM107.826 33.5547V29.2031C107.826 28.8698 107.759 28.5807 107.623 28.3359C107.493 28.0859 107.295 27.8932 107.029 27.7578C106.764 27.6224 106.436 27.5547 106.045 27.5547C105.68 27.5547 105.36 27.6172 105.084 27.7422C104.813 27.8672 104.6 28.0312 104.443 28.2344C104.292 28.4375 104.217 28.6562 104.217 28.8906H102.772C102.772 28.5885 102.85 28.2891 103.006 27.9922C103.162 27.6953 103.386 27.4271 103.678 27.1875C103.975 26.9427 104.329 26.75 104.74 26.6094C105.157 26.4635 105.621 26.3906 106.131 26.3906C106.746 26.3906 107.287 26.4948 107.756 26.7031C108.23 26.9115 108.6 27.2266 108.865 27.6484C109.136 28.0651 109.272 28.5885 109.272 29.2188V33.1562C109.272 33.4375 109.295 33.737 109.342 34.0547C109.394 34.3724 109.469 34.6458 109.568 34.875V35H108.061C107.988 34.8333 107.93 34.612 107.889 34.3359C107.847 34.0547 107.826 33.7943 107.826 33.5547ZM108.076 29.875L108.092 30.8906H106.631C106.219 30.8906 105.852 30.9245 105.529 30.9922C105.206 31.0547 104.936 31.151 104.717 31.2812C104.498 31.4115 104.331 31.5755 104.217 31.7734C104.102 31.9661 104.045 32.1927 104.045 32.4531C104.045 32.7188 104.105 32.9609 104.225 33.1797C104.344 33.3984 104.524 33.5729 104.764 33.7031C105.009 33.8281 105.308 33.8906 105.662 33.8906C106.105 33.8906 106.496 33.7969 106.834 33.6094C107.173 33.4219 107.441 33.1927 107.639 32.9219C107.842 32.651 107.951 32.388 107.967 32.1328L108.584 32.8281C108.548 33.0469 108.449 33.2891 108.287 33.5547C108.126 33.8203 107.91 34.0755 107.639 34.3203C107.373 34.5599 107.055 34.7604 106.686 34.9219C106.321 35.0781 105.91 35.1562 105.451 35.1562C104.878 35.1562 104.376 35.0443 103.943 34.8203C103.516 34.5964 103.183 34.2969 102.943 33.9219C102.709 33.5417 102.592 33.1172 102.592 32.6484C102.592 32.1953 102.68 31.7969 102.857 31.4531C103.035 31.1042 103.29 30.8151 103.623 30.5859C103.956 30.3516 104.357 30.1745 104.826 30.0547C105.295 29.9349 105.818 29.875 106.397 29.875H108.076ZM113.31 28.3516V35H111.865V26.5469H113.232L113.31 28.3516ZM112.967 30.4531L112.365 30.4297C112.37 29.8516 112.456 29.3177 112.623 28.8281C112.789 28.3333 113.024 27.9036 113.326 27.5391C113.628 27.1745 113.987 26.8932 114.404 26.6953C114.826 26.4922 115.292 26.3906 115.803 26.3906C116.219 26.3906 116.594 26.4479 116.928 26.5625C117.261 26.6719 117.545 26.849 117.779 27.0938C118.019 27.3385 118.201 27.6562 118.326 28.0469C118.451 28.4323 118.513 28.9036 118.513 29.4609V35H117.06V29.4453C117.06 29.0026 116.995 28.6484 116.865 28.3828C116.735 28.112 116.545 27.9167 116.295 27.7969C116.045 27.6719 115.737 27.6094 115.373 27.6094C115.013 27.6094 114.685 27.6849 114.388 27.8359C114.097 27.987 113.844 28.1953 113.631 28.4609C113.422 28.7266 113.258 29.0312 113.138 29.375C113.024 29.7135 112.967 30.0729 112.967 30.4531ZM124.568 26.5469V27.6562H119.997V26.5469H124.568ZM121.544 24.4922H122.99V32.9062C122.99 33.1927 123.034 33.4089 123.122 33.5547C123.211 33.7005 123.326 33.7969 123.466 33.8438C123.607 33.8906 123.758 33.9141 123.919 33.9141C124.039 33.9141 124.164 33.9036 124.294 33.8828C124.43 33.8568 124.531 33.8359 124.599 33.8203L124.607 35C124.492 35.0365 124.341 35.0703 124.154 35.1016C123.971 35.138 123.75 35.1562 123.49 35.1562C123.136 35.1562 122.81 35.0859 122.513 34.9453C122.216 34.8047 121.979 34.5703 121.802 34.2422C121.63 33.9089 121.544 33.4609 121.544 32.8984V24.4922Z" fill="#666666"/>
</svg>
