<svg width="131" height="43" viewBox="0 0 131 43" fill="none" xmlns="http://www.w3.org/2000/svg">
<path d="M22.5653 7.07863C22.0529 7.08006 21.6423 7.04497 21.3335 6.97336C20.3205 6.73863 20.359 4.97676 20.2528 4.23345C20.0619 2.89196 19.3794 1.74961 17.9225 1.54405C17.1281 1.43238 16.3387 1.50422 15.5451 1.74535C15.1319 1.87101 14.8068 1.99572 14.5698 2.11949C13.2009 2.83648 11.815 3.51885 10.4121 4.1666C10.4058 4.16957 10.4005 4.17414 10.3968 4.17979C10.393 4.18543 10.3909 4.19194 10.3907 4.19861C10.3885 4.25551 10.4612 4.19861 10.4776 4.1922C11.9345 3.59543 13.1214 2.95029 14.4366 2.30655C15.6077 1.73254 17.5427 1.33849 18.7382 1.99928C20.0661 2.73263 20.0384 4.23417 20.1951 5.5337C20.2735 6.17814 20.6069 7.06512 21.3364 7.16897C21.6874 7.21923 22.1029 7.2503 22.5832 7.26215M24.5437 7.29629C25.7263 7.2088 26.3739 7.37667 26.8442 6.07286C26.9297 5.83624 26.9757 5.63898 26.9823 5.48106C27.0643 3.59543 27.4412 1.77024 29.7266 1.69058C30.791 1.65359 31.7699 1.85655 32.6632 2.29944C33.9805 2.95312 35.3085 3.66442 36.6571 4.19932C36.6713 4.20501 36.6856 4.20737 36.6999 4.20643C36.7644 4.20358 36.7673 4.18889 36.7084 4.16233C35.4688 3.60373 34.247 3.00884 33.043 2.37769C31.9501 1.8051 30.8608 1.43309 29.6254 1.522C28.7114 1.58744 27.8921 1.91392 27.4269 2.69208C26.8883 3.59329 26.9168 4.57203 26.7544 5.60554C26.6884 6.02521 26.5247 6.39532 26.2635 6.71587C25.9443 7.10709 24.9797 7.11633 24.5601 7.07863" stroke="#666666" stroke-width="2"/>
<path d="M22.5653 7.07863C22.742 7.12226 22.748 7.18343 22.5832 7.26215C22.1029 7.2503 21.6874 7.21923 21.3364 7.16897C20.6069 7.06512 20.2735 6.17814 20.1951 5.5337C20.0384 4.23417 20.0661 2.73263 18.7382 1.99928C17.5427 1.33849 15.6077 1.73254 14.4366 2.30655C13.1214 2.95029 11.9345 3.59543 10.4776 4.1922C10.4612 4.19861 10.3885 4.25551 10.3907 4.19861C10.3909 4.19194 10.393 4.18543 10.3968 4.17979C10.4005 4.17414 10.4058 4.16957 10.4121 4.1666C11.815 3.51885 13.2009 2.83648 14.5698 2.11949C14.8068 1.99572 15.1319 1.87101 15.5451 1.74535C16.3387 1.50422 17.1281 1.43238 17.9225 1.54405C19.3794 1.74961 20.0619 2.89196 20.2528 4.23345C20.359 4.97676 20.3205 6.73863 21.3335 6.97336C21.6423 7.04497 22.0529 7.08006 22.5653 7.07863ZM24.5437 7.29629C24.4283 7.20809 24.4338 7.13554 24.5601 7.07863C24.9797 7.11633 25.9443 7.10709 26.2635 6.71587C26.5247 6.39532 26.6884 6.02521 26.7544 5.60554C26.9168 4.57203 26.8883 3.59329 27.4269 2.69208C27.8921 1.91392 28.7114 1.58744 29.6254 1.522C30.8608 1.43309 31.9501 1.8051 33.043 2.37769C34.247 3.00884 35.4688 3.60373 36.7084 4.16233C36.7673 4.18889 36.7644 4.20358 36.6999 4.20643C36.6856 4.20737 36.6713 4.20501 36.6571 4.19932C35.3085 3.66442 33.9805 2.95312 32.6632 2.29944C31.7699 1.85655 30.791 1.65359 29.7266 1.69058C27.4412 1.77024 27.0643 3.59543 26.9823 5.48106C26.9757 5.63898 26.9297 5.83624 26.8442 6.07286C26.3739 7.37667 25.7263 7.2088 24.5437 7.29629Z" fill="#666666"/>
<path d="M22.1883 26.029C21.1931 25.4145 19.5296 24.6164 19.3052 23.3325C19.095 22.1297 20.4337 21.1957 21.4105 20.764C21.4274 20.7562 21.4466 20.7555 21.4639 20.7619L24.0101 21.7022C24.024 21.7074 24.036 21.7168 24.0443 21.729C24.0526 21.7413 24.0568 21.7557 24.0564 21.7705L23.9844 24.7679C23.9842 24.7789 23.9814 24.7897 23.9761 24.7994C23.971 24.8092 23.9635 24.8177 23.9545 24.8241L22.2674 26.0261C22.256 26.0344 22.2425 26.039 22.2284 26.0395C22.2142 26.0401 22.2004 26.0364 22.1883 26.029ZM21.243 23.8012C21.7835 24.2124 22.3332 24.6111 22.8922 24.9976C22.9687 25.0503 23.006 25.0304 23.0041 24.9379L22.9499 21.5898C22.9497 21.5783 22.9467 21.567 22.9411 21.557C22.9356 21.5469 22.9277 21.5382 22.9182 21.5318C22.9086 21.5254 22.8976 21.5214 22.8862 21.5201C22.8747 21.5188 22.8631 21.5203 22.8524 21.5244C22.2475 21.7598 20.0568 22.9007 21.243 23.8012ZM24.2815 32.1902C23.8953 31.8431 23.4116 31.3466 23.1188 31.0308C23.1065 31.0181 23.0996 31.0012 23.0995 30.9839L23.0454 27.4736C23.0452 27.4617 23.048 27.4498 23.0535 27.4393C23.0589 27.4287 23.0669 27.4198 23.0768 27.4132L24.6848 26.3413C24.697 26.3331 24.7116 26.3289 24.7264 26.3292C24.7412 26.3297 24.7555 26.3346 24.7674 26.3434C25.7882 27.1094 27.1782 28.4751 26.4123 29.8771C25.926 30.7676 25.2459 31.5399 24.3719 32.1937C24.3587 32.2038 24.3424 32.2089 24.326 32.2083C24.3094 32.2077 24.2937 32.2013 24.2815 32.1902ZM24.4482 27.5882C24.3176 27.4738 24.1815 27.3659 24.04 27.2646C23.9669 27.2119 23.9291 27.2306 23.9267 27.3207L23.8412 31.2357C23.8388 31.3324 23.8714 31.3462 23.9388 31.277C24.1953 31.0132 24.4448 30.7434 24.6876 30.4674C24.9612 30.156 25.1592 29.8729 25.2818 29.6182C25.6815 28.7867 25.0288 28.0939 24.4482 27.5882Z" fill="#666666"/>
<path d="M22.9767 37.7831C22.2102 37.0383 21.3154 36.2809 21.1522 35.1819C21.0034 34.1803 21.9594 33.2365 22.607 32.5871C22.6202 32.574 22.6379 32.5665 22.6565 32.5662C22.6749 32.566 22.6927 32.5729 22.7061 32.5857L23.7605 33.5794C23.7676 33.5861 23.7733 33.5943 23.777 33.6036C23.7809 33.6127 23.7827 33.6226 23.7825 33.6327L23.712 36.8897C23.712 36.904 23.7073 36.9182 23.6985 36.9302L23.0844 37.7738C23.0784 37.7822 23.0706 37.7891 23.0617 37.7941C23.0528 37.7992 23.0429 37.8022 23.0326 37.8031C23.0225 37.804 23.0122 37.8026 23.0025 37.7992C22.9929 37.7957 22.9841 37.7903 22.9767 37.7831ZM23.0224 33.4848C22.7554 33.7475 22.5199 34.0208 22.3156 34.3049C22.2301 34.4239 22.1534 34.6356 22.0856 34.94C21.9608 35.4991 22.2779 36.0276 22.6212 36.4572C22.7894 36.6683 22.9468 36.8683 23.0936 37.0576C23.1635 37.1472 23.1977 37.1353 23.1962 37.022L23.1434 33.5345C23.1421 33.4236 23.1017 33.407 23.0224 33.4848ZM23.6692 38.8529C23.6389 40.0085 23.6098 41.171 23.5823 42.3404C23.5809 42.4215 23.5664 42.5044 23.5388 42.5894C23.5194 42.65 23.5014 42.7112 23.4847 42.7729C23.451 42.8937 23.4144 42.8947 23.375 42.7757C23.3469 42.6894 23.3244 42.6014 23.3073 42.5117C23.2911 42.4269 23.2821 42.3143 23.2802 42.174C23.2679 41.2288 23.2539 40.2838 23.2383 39.3387C23.2368 39.2268 23.2605 39.1253 23.3095 39.0342C23.4538 38.7654 23.6295 38.52 23.8366 38.2981C23.8442 38.2901 23.8534 38.2839 23.8637 38.2801C23.874 38.2763 23.8851 38.2749 23.896 38.2761C23.907 38.2773 23.9175 38.2809 23.9268 38.2868C23.9363 38.2928 23.9442 38.3007 23.9499 38.3102C24.0768 38.5179 24.1758 38.7357 24.247 38.9638C24.4037 39.4646 24.3759 40.3751 23.9285 40.7421C23.9245 40.7452 23.9198 40.7473 23.9149 40.7481C23.9099 40.7489 23.9047 40.7485 23.9 40.7467C23.8952 40.745 23.891 40.7422 23.8876 40.7383C23.8843 40.7345 23.8819 40.7299 23.8808 40.725C23.8798 40.7184 23.8794 40.7113 23.8794 40.7036C23.8794 40.6946 23.8817 40.6854 23.8866 40.6759C24.2052 40.041 24.1767 39.4214 23.8011 38.8173C23.7175 38.6826 23.6735 38.6945 23.6692 38.8529Z" fill="#666666"/>
<path d="M16.8888 1H17.6724C19.6181 1.13301 20.4609 2.48162 20.5913 4.29471C20.6432 5.0174 20.7045 6.41793 21.6998 6.52605C21.952 6.55355 22.2106 6.57441 22.4756 6.58865C22.493 6.5895 22.5094 6.5968 22.5218 6.60914C22.5341 6.62148 22.5415 6.638 22.5426 6.6555L22.5661 7.07873C22.0536 7.08015 21.643 7.04505 21.3343 6.97346C20.3212 6.73873 20.3597 4.97685 20.2536 4.23355C20.0626 2.89204 19.3801 1.7497 17.9232 1.54414C17.1289 1.43247 16.3395 1.50431 15.5459 1.74544C15.1327 1.8711 14.8076 1.99582 14.5705 2.11957C13.2017 2.83656 11.8158 3.51893 10.4128 4.16668C10.4066 4.16967 10.4013 4.17422 10.3975 4.17987C10.3937 4.18551 10.3916 4.19203 10.3914 4.19869C10.3893 4.25559 10.462 4.19869 10.4784 4.19229C11.9353 3.59551 13.1222 2.95037 14.4373 2.30665C15.6085 1.73263 17.5435 1.33858 18.739 1.99937C20.0668 2.73271 20.0392 4.23426 20.1959 5.5338C20.2742 6.17823 20.6076 7.06521 21.3371 7.16906C21.6881 7.21933 22.1037 7.25038 22.5839 7.26224C22.5611 7.71035 22.5584 8.21467 22.5761 8.77516C22.5926 9.31243 22.6129 10.4479 22.6366 12.1816C22.6366 12.1947 22.6331 12.2073 22.6266 12.2185C22.1871 12.9611 21.4625 13.6668 20.6026 13.8574C20.2949 13.9257 20.0078 13.8339 19.9629 13.4981C19.9467 13.3796 19.9847 13.2125 20.0768 12.9967C20.0954 12.9525 20.4552 12.2384 20.3419 12.279C20.3272 12.2844 20.3155 12.2952 20.3091 12.3088C19.9366 13.1048 19.0246 13.9947 18.0621 13.8168C17.5164 13.7158 17.3753 13.1418 17.6553 12.7214C17.9255 12.3155 18.1547 11.8861 18.3428 11.4333C18.3684 11.3716 18.3583 11.365 18.3122 11.4133C18.3008 11.4253 18.2893 11.4407 18.278 11.4596C18.0358 11.8608 17.5998 12.5301 17.1595 12.8004C16.4727 13.2221 13.482 14.3865 14.9331 11.9909C15.0404 11.8136 15.224 11.5938 15.4839 11.3316C15.84 10.9731 16.1832 10.6022 16.5133 10.2191C16.5396 10.1892 16.5319 10.1273 16.4841 10.175C15.952 10.7106 15.3072 11.3664 14.6204 11.6915C13.8723 12.0457 12.4226 12.6902 11.6019 12.4718C10.8901 12.2818 11.396 11.5392 11.6438 11.2419C11.7289 11.14 11.8774 11.0157 12.0892 10.8692C13.0262 10.2205 13.9462 9.54811 14.8491 8.85199C14.9011 8.81215 14.8348 8.82353 14.8263 8.82851C13.7932 9.50235 12.7474 10.156 11.6887 10.7895C11.5216 10.8901 11.3501 10.9633 11.1744 11.0093C10.1651 11.2735 9.1549 11.3918 8.14373 11.3643C7.9604 11.3591 7.76662 11.3273 7.56239 11.269C6.50658 10.9674 8.22352 10.0007 8.53486 9.85704C9.89987 9.2292 11.2423 8.55775 12.5622 7.84266C14.4658 6.81033 14.444 6.76813 12.4966 7.71605C12.4092 7.75825 12.3222 7.80093 12.2352 7.84408C11.6068 8.15183 10.2326 8.75927 8.11239 9.66642C7.95803 9.73233 7.80082 9.77264 7.64076 9.78734C6.46526 9.89545 5.05394 9.94382 3.89839 9.66286C3.17813 9.48788 4.37714 8.7339 4.57164 8.63504C7.82884 6.98151 11.0887 5.33297 14.3511 3.6894C14.3791 3.67565 14.3772 3.66664 14.3453 3.66238C14.3387 3.66191 14.3321 3.66309 14.3254 3.66593C11.0511 5.14353 7.78348 6.63559 4.52248 8.14211C4.40469 8.19664 4.28239 8.22675 4.15557 8.23245C3.32631 8.26801 2.31966 8.27251 1.13561 8.24596C0.698652 8.236 0.320116 8.17294 0 8.05675V8.00198C0.108764 7.92801 0.227976 7.87656 0.357637 7.84763C1.70745 7.54462 3.02544 7.13634 4.3116 6.62278C6.59326 5.71232 8.8279 4.69968 11.0156 3.58484C12.9534 2.59757 14.646 1.22406 16.8888 1ZM24.5445 7.29638C25.7271 7.2089 26.3747 7.37676 26.8449 6.07296C26.9304 5.83633 26.9765 5.63906 26.9831 5.48116C27.065 3.59551 27.442 1.77033 29.7274 1.69067C30.7918 1.65368 31.7706 1.85664 32.664 2.29954C33.9813 2.95322 35.3092 3.66452 36.6578 4.1994C36.6721 4.20509 36.6864 4.20747 36.7006 4.20651C36.7651 4.20368 36.7681 4.18897 36.7091 4.16242C35.4695 3.60381 34.2477 3.00894 33.0438 2.37778C31.9509 1.80519 30.8615 1.43318 29.6262 1.52209C28.7121 1.58753 27.8928 1.91401 27.4277 2.69217C26.8891 3.59338 26.9175 4.57212 26.7551 5.60564C26.6892 6.0253 26.5255 6.39541 26.2643 6.71597C25.9451 7.10717 24.9805 7.11642 24.5609 7.07873L24.563 6.66902C24.563 6.65046 24.5703 6.63266 24.5834 6.61947C24.5965 6.60629 24.6143 6.59879 24.6328 6.5986C24.9373 6.59386 25.24 6.57181 25.5412 6.53246C26.6354 6.38735 26.5201 4.26058 26.6931 3.49593C27.1028 1.68711 28.232 0.950921 30.0473 1.02347C31.7464 1.09105 33.0031 1.83648 34.4244 2.66158C36.655 3.95543 39.043 5.04299 41.5472 6.10852C43.0239 6.73683 44.4541 7.24683 45.8381 7.63851C45.9415 7.66768 47.1526 7.89031 47.1569 8.05534C47.1572 8.07117 47.1523 8.08672 47.1427 8.09947C47.1332 8.11223 47.1195 8.12148 47.1041 8.12575C46.8867 8.18313 46.6672 8.2187 46.4458 8.23245C45.2998 8.30405 44.1535 8.3114 43.007 8.2545C42.8792 8.24833 42.7563 8.21799 42.6379 8.16345C39.4315 6.68111 36.2173 5.21584 32.9953 3.76765C32.9511 3.74773 32.9333 3.75176 32.9418 3.77974C32.9446 3.78752 32.95 3.79387 32.9568 3.79752C36.1846 5.41453 39.4059 7.04411 42.6208 8.68625C42.9594 8.85886 43.2452 9.0943 43.4779 9.39257C43.561 9.49879 43.5413 9.57466 43.4187 9.62018C43.2107 9.69795 42.9965 9.74916 42.7762 9.77382C41.6985 9.89427 40.6206 9.90612 39.5425 9.80939C39.3777 9.79421 39.2159 9.75343 39.0573 9.68704C36.9551 8.80646 34.8801 7.86637 32.8322 6.86676C32.8017 6.85158 32.8027 6.85348 32.835 6.87245C34.7694 7.99013 36.748 9.0234 38.7709 9.97228C39.1451 10.1477 39.4773 10.3817 39.7676 10.6743C40.2235 11.1338 39.6294 11.3316 39.2824 11.3579C38.1924 11.4397 37.0241 11.3031 35.9718 11.0221C35.7923 10.9743 35.6153 10.8979 35.441 10.7931C34.4019 10.1691 33.36 9.51728 32.3156 8.83775C32.1052 8.70071 32.0959 8.71304 32.2878 8.87475C32.3163 8.89893 32.3505 8.92619 32.3904 8.95655C33.2995 9.6446 34.2243 10.3111 35.1646 10.956C35.5935 11.2505 36.5218 12.4028 35.3648 12.5266C34.4443 12.6261 32.5372 11.8523 31.8077 11.232C31.6699 11.1149 31.5331 10.9968 31.3973 10.8777C30.6431 10.2153 30.6101 10.2492 31.2983 10.9795C31.4346 11.1241 31.5752 11.2647 31.7201 11.4013C32.1176 11.7747 32.3312 12.1609 32.5208 12.6454C32.8392 13.4604 32.166 13.5593 31.5668 13.4349C30.9171 13.2998 30.0451 13.0002 29.607 12.4754C29.5279 12.3807 28.819 11.4382 28.8183 11.4382C28.8164 11.4386 28.8145 11.4393 28.813 11.4404C28.8114 11.4417 28.8101 11.4433 28.8093 11.4452C28.8083 11.4469 28.8078 11.449 28.8078 11.4511C28.8078 11.4533 28.8082 11.4554 28.8091 11.4574C28.9929 11.8979 29.2178 12.3155 29.4837 12.7101C29.5611 12.8257 29.6051 12.9351 29.6155 13.0379C29.6803 13.6838 29.2964 13.8893 28.7143 13.8574C28.0724 13.8218 27.4184 13.2371 27.0829 12.7278C27.0643 12.6998 27.046 12.6718 27.028 12.6439C26.7792 12.2645 26.7459 12.2825 26.9282 12.6979C26.9776 12.8113 27.0294 12.9234 27.0836 13.0343C27.1529 13.1771 27.1859 13.3039 27.1826 13.415C27.1626 14.1056 26.4972 13.9129 26.0954 13.718C25.4101 13.3865 24.8846 12.8803 24.5188 12.1994C24.4718 12.1107 24.4494 12.0125 24.4519 11.9049C24.4913 10.3704 24.5221 8.8342 24.5445 7.29638Z" fill="#666666"/>
<path d="M23.5644 4.59839C24.3442 4.59839 24.9764 3.9672 24.9764 3.18859C24.9764 2.40999 24.3442 1.77881 23.5644 1.77881C22.7845 1.77881 22.1523 2.40999 22.1523 3.18859C22.1523 3.9672 22.7845 4.59839 23.5644 4.59839Z" fill="#666666"/>
<path d="M24.2203 19.392C24.9332 19.0809 25.6081 18.7035 26.245 18.2597C26.6355 17.9873 27.5758 17.5149 27.4255 16.9181C27.3552 16.6379 27.1754 16.5018 26.8862 16.5098C26.2436 16.5269 25.3844 15.9422 24.9534 15.5098C24.8456 15.4012 24.8339 15.3056 24.9185 15.2231C24.9252 15.2165 24.9306 15.2088 24.9342 15.2001C24.9379 15.1915 24.9398 15.1822 24.9399 15.1727C24.94 15.1634 24.9382 15.1541 24.9347 15.1454C24.9311 15.1367 24.9258 15.1287 24.9192 15.1221C24.8608 15.0629 24.8537 14.9856 24.8978 14.8903C25.0931 14.4668 25.4244 14.2359 25.8917 14.1974C26.7238 14.1299 28.0332 14.3902 28.2683 15.3334C28.272 15.3482 28.2805 15.3616 28.2926 15.3717C28.9351 15.8896 29.4744 16.8057 29.2835 17.6494C28.9309 19.2064 26.9454 20.0301 25.6138 20.491C25.605 20.4942 25.5958 20.4955 25.5864 20.495C25.5772 20.4945 25.5681 20.4922 25.5597 20.4881L22.9544 19.2447C22.9425 19.239 22.9326 19.23 22.9255 19.2189C22.9184 19.2077 22.9146 19.1948 22.9144 19.1815L22.685 4.83396C22.6849 4.8237 22.6826 4.81361 22.6781 4.80437C22.6735 4.79513 22.667 4.78697 22.6591 4.78047C22.6511 4.77396 22.6418 4.76927 22.6317 4.76672C22.6216 4.76416 22.6111 4.7638 22.6009 4.76567C22.3392 4.81262 22.208 4.6898 22.207 4.39722C22.207 4.33795 22.2307 4.28247 22.2783 4.23078C22.2847 4.22365 22.2925 4.21793 22.3013 4.21397C22.3102 4.21001 22.3197 4.2079 22.3294 4.20777C22.339 4.20763 22.3487 4.20948 22.3577 4.2132C22.3666 4.2169 22.3748 4.2224 22.3815 4.22936C22.5925 4.44465 22.7917 4.58287 22.9792 4.64404C23.6651 4.86691 24.2521 4.72916 24.7404 4.23078C24.7533 4.2175 24.7709 4.20983 24.7895 4.20944C24.8079 4.20904 24.826 4.21594 24.8394 4.22864C24.9059 4.29029 24.9304 4.3766 24.9127 4.48756C24.8738 4.73272 24.7468 4.82329 24.5316 4.75927C24.5211 4.75611 24.5101 4.75542 24.4993 4.75725C24.4885 4.75909 24.4782 4.76341 24.4694 4.76988C24.4605 4.77634 24.4531 4.78478 24.448 4.79453C24.4429 4.8043 24.44 4.81511 24.4397 4.82613C24.367 7.98286 24.2932 11.1099 24.2182 14.2074C24.1774 15.9135 24.1448 17.6197 24.1206 19.3259C24.1204 19.3378 24.1232 19.3495 24.1288 19.3601C24.1343 19.3705 24.1424 19.3795 24.1524 19.386C24.1623 19.3926 24.1737 19.3966 24.1855 19.3977C24.1975 19.3987 24.2093 19.3968 24.2203 19.392ZM26.3206 14.7768C26.3207 14.7592 26.3139 14.7416 26.3008 14.7253C26.2877 14.7089 26.2684 14.6939 26.244 14.6813C26.2196 14.6686 26.1906 14.6585 26.1587 14.6516C26.1267 14.6445 26.0925 14.6408 26.0579 14.6406C25.988 14.6401 25.9209 14.6538 25.8712 14.6787C25.8216 14.7035 25.7936 14.7375 25.7933 14.7732C25.7932 14.7909 25.7999 14.8084 25.813 14.8248C25.8261 14.8411 25.8454 14.8561 25.8699 14.8688C25.8942 14.8815 25.9233 14.8915 25.9552 14.8985C25.9872 14.9054 26.0214 14.9092 26.056 14.9094C26.126 14.9099 26.1931 14.8962 26.2427 14.8714C26.2922 14.8465 26.3202 14.8125 26.3206 14.7768Z" fill="#666666"/>
<path d="M23.9517 33.4819C23.0114 32.4961 21.6249 31.5607 20.8121 30.2818C20.27 29.429 20.1467 28.6878 20.7338 27.8513C21.1322 27.2842 21.5934 26.8098 22.1173 26.428C23.9506 25.0912 25.1327 24.2379 25.6638 23.8681C27.0508 22.9007 24.6222 21.7071 23.9489 21.4582C23.0089 21.1101 22.0707 20.758 21.1341 20.4019C20.4232 20.1311 19.9831 19.9533 19.814 19.8685C18.8522 19.3833 17.4246 18.2744 17.6781 17.0126C17.8012 16.4018 18.0973 15.8871 18.5666 15.4684C18.7674 15.2891 18.7318 15.1405 18.8708 14.9562C19.4785 14.1482 21.7226 13.6674 22.1159 15.0061C22.1199 15.0191 22.1199 15.0331 22.116 15.0462C22.112 15.0594 22.1044 15.0711 22.0938 15.08L22.0517 15.1155C22.0434 15.1226 22.0369 15.1315 22.0325 15.1414C22.0282 15.1514 22.0261 15.1621 22.0266 15.173C22.0271 15.1838 22.0301 15.1944 22.0353 15.2039C22.0405 15.2135 22.0478 15.2217 22.0567 15.2279L22.0881 15.25C22.1013 15.2594 22.111 15.2731 22.1154 15.2888C22.1198 15.3045 22.1187 15.3211 22.1123 15.3361C21.8993 15.8369 20.5321 16.6335 20.0056 16.4898C19.9903 16.4856 19.9741 16.4867 19.9594 16.4926C19.6273 16.6311 19.4903 16.8474 19.5482 17.1414C19.623 17.5183 19.9829 17.7495 20.3013 17.9658C21.0864 18.4999 21.7254 18.9067 22.6017 19.3186C24.0423 19.9951 25.6566 20.6516 26.9155 21.5855C27.1833 21.7842 27.3895 22.0298 27.5338 22.3225C28.0917 23.4505 27.2396 24.4364 26.3591 25.0218C25.1123 25.8505 23.7843 26.6101 22.6167 27.5099C21.8587 28.0939 21.184 28.9467 21.8707 29.9126C22.6637 31.028 23.7523 31.974 24.7184 32.9393C25.1391 33.3603 25.4597 33.793 25.6801 34.2373C26.1253 35.1343 25.5711 36.2389 24.9043 36.8727C23.8791 37.8464 22.7571 38.9084 22.6887 40.4292C22.6716 40.8168 22.8233 41.2215 22.9315 41.602C22.9444 41.6476 22.9302 41.6585 22.8888 41.6348C22.8783 41.6291 22.8687 41.6189 22.8597 41.6042C21.786 39.8473 23.1525 37.8884 24.2467 36.5896C24.915 35.7965 25.1914 35.0809 24.5495 34.1505C24.4816 34.0519 24.2824 33.829 23.9517 33.4819ZM21.1754 14.7808C21.1757 14.7634 21.1692 14.7459 21.1564 14.7296C21.1435 14.7132 21.1244 14.6983 21.1003 14.6855C21.0762 14.6727 21.0474 14.6624 21.0158 14.6551C20.9841 14.6479 20.9501 14.6439 20.9156 14.6433C20.8812 14.6426 20.8471 14.6456 20.8151 14.6517C20.7832 14.6578 20.7541 14.667 20.7296 14.679C20.705 14.6909 20.6854 14.7053 20.672 14.7212C20.6586 14.7371 20.6514 14.7543 20.6512 14.7718C20.6506 14.807 20.6775 14.8413 20.7263 14.8671C20.775 14.8929 20.8414 14.9081 20.911 14.9093C20.9454 14.9099 20.9795 14.907 21.0115 14.9009C21.0433 14.8948 21.0724 14.8855 21.097 14.8736C21.1215 14.8617 21.1411 14.8473 21.1545 14.8314C21.168 14.8155 21.1751 14.7983 21.1754 14.7808Z" fill="#666666"/>
<path d="M62.7266 10.5266V12.4954H56.8359V10.5266H62.7266ZM57.6406 5.94849V17.3235H55.0938V5.94849H57.6406ZM64.4844 5.94849V17.3235H61.9453V5.94849H64.4844ZM69.4059 5.94849V17.3235H66.8669V5.94849H69.4059ZM76.265 13.3704H73.4056V11.3938H76.265C76.6869 11.3938 77.0254 11.3235 77.2806 11.1829C77.541 11.0422 77.7311 10.8495 77.8509 10.6047C77.9759 10.3547 78.0384 10.0735 78.0384 9.76099C78.0384 9.43807 77.9759 9.13859 77.8509 8.86255C77.7311 8.5813 77.541 8.35474 77.2806 8.18286C77.0254 8.01099 76.6869 7.92505 76.265 7.92505H74.3275V17.3235H71.7806V5.94849H76.265C77.1712 5.94849 77.9473 6.11255 78.5931 6.44067C79.2442 6.7688 79.7416 7.21932 80.0853 7.79224C80.4343 8.35994 80.6087 9.01099 80.6087 9.74536C80.6087 10.4797 80.4343 11.1178 80.0853 11.6594C79.7416 12.2011 79.2442 12.623 78.5931 12.925C77.9473 13.2219 77.1712 13.3704 76.265 13.3704ZM85.8584 8.11255L82.9209 17.3235H80.2022L84.4131 5.94849H86.1319L85.8584 8.11255ZM88.2959 17.3235L85.3506 8.11255L85.0459 5.94849H86.7881L91.0147 17.3235H88.2959ZM88.1709 13.0891V15.0579H82.2412V13.0891H88.1709ZM97.0066 8.11255L94.0691 17.3235H91.3503L95.5612 5.94849H97.28L97.0066 8.11255ZM99.4441 17.3235L96.4987 8.11255L96.1941 5.94849H97.9362L102.163 17.3235H99.4441ZM99.3191 13.0891V15.0579H93.3894V13.0891H99.3191Z" fill="#666666"/>
<path d="M62.3438 32.7063H63.8438C63.7656 33.425 63.5599 34.0683 63.2266 34.636C62.8932 35.2037 62.4219 35.6542 61.8125 35.9875C61.2031 36.3157 60.4427 36.4797 59.5312 36.4797C58.8646 36.4797 58.2578 36.3547 57.7109 36.1047C57.1693 35.8547 56.7031 35.5006 56.3125 35.0422C55.9219 34.5787 55.6198 34.024 55.4062 33.3782C55.1979 32.7271 55.0938 32.0032 55.0938 31.2063V30.0735C55.0938 29.2766 55.1979 28.5553 55.4062 27.9094C55.6198 27.2584 55.9245 26.7011 56.3203 26.2375C56.7214 25.774 57.2031 25.4172 57.7656 25.1672C58.3281 24.9172 58.9609 24.7922 59.6641 24.7922C60.5234 24.7922 61.25 24.9537 61.8438 25.2766C62.4375 25.5995 62.8984 26.0474 63.2266 26.6204C63.5599 27.1881 63.7656 27.8469 63.8438 28.5969H62.3438C62.2708 28.0657 62.1354 27.6099 61.9375 27.2297C61.7396 26.8443 61.4583 26.5474 61.0938 26.3391C60.7292 26.1308 60.2526 26.0266 59.6641 26.0266C59.1589 26.0266 58.7135 26.123 58.3281 26.3157C57.9479 26.5084 57.6276 26.7818 57.3672 27.136C57.112 27.4902 56.9193 27.9146 56.7891 28.4094C56.6589 28.9042 56.5938 29.4537 56.5938 30.0579V31.2063C56.5938 31.7636 56.651 32.287 56.7656 32.7766C56.8854 33.2662 57.0651 33.6959 57.3047 34.0657C57.5443 34.4355 57.849 34.7271 58.2188 34.9407C58.5885 35.149 59.026 35.2532 59.5312 35.2532C60.1719 35.2532 60.6823 35.1516 61.0625 34.9485C61.4427 34.7454 61.7292 34.4537 61.9219 34.0735C62.1198 33.6933 62.2604 33.2375 62.3438 32.7063ZM65.6169 32.1907V32.011C65.6169 31.4016 65.7054 30.8365 65.8825 30.3157C66.0596 29.7896 66.3148 29.3339 66.6481 28.9485C66.9815 28.5579 67.3851 28.2558 67.8591 28.0422C68.333 27.8235 68.8643 27.7141 69.4528 27.7141C70.0466 27.7141 70.5804 27.8235 71.0544 28.0422C71.5335 28.2558 71.9398 28.5579 72.2731 28.9485C72.6117 29.3339 72.8695 29.7896 73.0466 30.3157C73.2236 30.8365 73.3122 31.4016 73.3122 32.011V32.1907C73.3122 32.8 73.2236 33.3652 73.0466 33.886C72.8695 34.4068 72.6117 34.8625 72.2731 35.2532C71.9398 35.6386 71.5361 35.9407 71.0622 36.1594C70.5934 36.373 70.0622 36.4797 69.4684 36.4797C68.8747 36.4797 68.3408 36.373 67.8669 36.1594C67.3929 35.9407 66.9867 35.6386 66.6481 35.2532C66.3148 34.8625 66.0596 34.4068 65.8825 33.886C65.7054 33.3652 65.6169 32.8 65.6169 32.1907ZM67.0622 32.011V32.1907C67.0622 32.6125 67.1117 33.011 67.2106 33.386C67.3096 33.7558 67.458 34.0839 67.6559 34.3704C67.8591 34.6568 68.1117 34.8834 68.4137 35.05C68.7158 35.2115 69.0674 35.2922 69.4684 35.2922C69.8643 35.2922 70.2106 35.2115 70.5075 35.05C70.8096 34.8834 71.0596 34.6568 71.2575 34.3704C71.4554 34.0839 71.6039 33.7558 71.7028 33.386C71.807 33.011 71.8591 32.6125 71.8591 32.1907V32.011C71.8591 31.5943 71.807 31.2011 71.7028 30.8313C71.6039 30.4563 71.4528 30.1256 71.2497 29.8391C71.0518 29.5474 70.8018 29.3183 70.4997 29.1516C70.2028 28.9849 69.8539 28.9016 69.4528 28.9016C69.057 28.9016 68.708 28.9849 68.4059 29.1516C68.1091 29.3183 67.8591 29.5474 67.6559 29.8391C67.458 30.1256 67.3096 30.4563 67.2106 30.8313C67.1117 31.2011 67.0622 31.5943 67.0622 32.011ZM76.8822 29.55V36.3235H75.4291V27.8704H76.8041L76.8822 29.55ZM76.5853 31.7766L75.9134 31.7532C75.9186 31.175 75.9942 30.6412 76.14 30.1516C76.2858 29.6568 76.502 29.2271 76.7884 28.8625C77.0749 28.498 77.4317 28.2167 77.8587 28.0188C78.2858 27.8157 78.7806 27.7141 79.3431 27.7141C79.739 27.7141 80.1035 27.7714 80.4369 27.886C80.7702 27.9954 81.0593 28.1698 81.3041 28.4094C81.5489 28.649 81.739 28.9563 81.8744 29.3313C82.0098 29.7063 82.0775 30.1594 82.0775 30.6907V36.3235H80.6322V30.761C80.6322 30.3183 80.5567 29.9641 80.4056 29.6985C80.2598 29.4329 80.0515 29.2402 79.7806 29.1204C79.5098 28.9954 79.1921 28.9329 78.8275 28.9329C78.4004 28.9329 78.0436 29.0084 77.7572 29.1594C77.4707 29.3105 77.2416 29.5188 77.0697 29.7844C76.8978 30.05 76.7728 30.3547 76.6947 30.6985C76.6218 31.037 76.5853 31.3964 76.5853 31.7766ZM82.0619 30.9797L81.0931 31.2766C81.0983 30.8131 81.1739 30.3678 81.3197 29.9407C81.4707 29.5136 81.6869 29.1334 81.9681 28.8C82.2546 28.4667 82.6061 28.2037 83.0228 28.011C83.4395 27.8131 83.916 27.7141 84.4525 27.7141C84.9056 27.7141 85.3067 27.774 85.6556 27.8938C86.0098 28.0136 86.3067 28.1985 86.5462 28.4485C86.791 28.6933 86.9759 29.0084 87.1009 29.3938C87.2259 29.7792 87.2884 30.2375 87.2884 30.7688V36.3235H85.8353V30.7532C85.8353 30.2792 85.7598 29.912 85.6087 29.6516C85.4629 29.386 85.2546 29.2011 84.9837 29.0969C84.7181 28.9875 84.4004 28.9329 84.0306 28.9329C83.7129 28.9329 83.4317 28.9875 83.1869 29.0969C82.9421 29.2063 82.7364 29.3573 82.5697 29.55C82.403 29.7375 82.2754 29.9537 82.1869 30.1985C82.1035 30.4433 82.0619 30.7037 82.0619 30.9797ZM91.2412 29.4954V39.5735H89.7881V27.8704H91.1162L91.2412 29.4954ZM96.9366 32.0266V32.1907C96.9366 32.8053 96.8636 33.3756 96.7178 33.9016C96.572 34.4224 96.3584 34.8756 96.0772 35.261C95.8011 35.6464 95.46 35.9459 95.0537 36.1594C94.6475 36.373 94.1814 36.4797 93.6553 36.4797C93.1189 36.4797 92.6449 36.3912 92.2334 36.2141C91.822 36.037 91.473 35.7792 91.1866 35.4407C90.9001 35.1021 90.6709 34.6959 90.4991 34.2219C90.3324 33.748 90.2178 33.2141 90.1553 32.6204V31.7454C90.2178 31.1204 90.335 30.5605 90.5069 30.0657C90.6787 29.5709 90.9053 29.149 91.1866 28.8C91.473 28.4459 91.8194 28.1777 92.2256 27.9954C92.6319 27.8079 93.1006 27.7141 93.6319 27.7141C94.1631 27.7141 94.6345 27.8183 95.0459 28.0266C95.4574 28.2297 95.8037 28.5214 96.085 28.9016C96.3662 29.2818 96.5772 29.7375 96.7178 30.2688C96.8636 30.7948 96.9366 31.3808 96.9366 32.0266ZM95.4834 32.1907V32.0266C95.4834 31.6047 95.4392 31.2089 95.3506 30.8391C95.2621 30.4641 95.1241 30.136 94.9366 29.8547C94.7543 29.5683 94.5199 29.3443 94.2334 29.1829C93.947 29.0162 93.6058 28.9329 93.21 28.9329C92.8454 28.9329 92.5277 28.9954 92.2569 29.1204C91.9912 29.2454 91.7647 29.4146 91.5772 29.6282C91.3897 29.8365 91.236 30.0761 91.1162 30.3469C91.0017 30.6125 90.9157 30.8886 90.8584 31.175V33.1985C90.9626 33.5631 91.1084 33.9068 91.2959 34.2297C91.4834 34.5474 91.7334 34.8053 92.0459 35.0032C92.3584 35.1959 92.7517 35.2922 93.2256 35.2922C93.6162 35.2922 93.9522 35.2115 94.2334 35.05C94.5199 34.8834 94.7543 34.6568 94.9366 34.3704C95.1241 34.0839 95.2621 33.7558 95.3506 33.386C95.4392 33.011 95.4834 32.6125 95.4834 32.1907ZM100.671 24.3235V36.3235H99.2175V24.3235H100.671ZM104.881 27.8704V36.3235H103.428V27.8704H104.881ZM103.319 25.6282C103.319 25.3938 103.389 25.1959 103.53 25.0344C103.676 24.873 103.889 24.7922 104.17 24.7922C104.446 24.7922 104.657 24.873 104.803 25.0344C104.954 25.1959 105.03 25.3938 105.03 25.6282C105.03 25.8521 104.954 26.0448 104.803 26.2063C104.657 26.3625 104.446 26.4407 104.17 26.4407C103.889 26.4407 103.676 26.3625 103.53 26.2063C103.389 26.0448 103.319 25.8521 103.319 25.6282ZM112.506 34.8782V30.5266C112.506 30.1933 112.438 29.9042 112.303 29.6594C112.173 29.4094 111.975 29.2167 111.709 29.0813C111.443 28.9459 111.115 28.8782 110.725 28.8782C110.36 28.8782 110.04 28.9407 109.764 29.0657C109.493 29.1907 109.279 29.3547 109.123 29.5579C108.972 29.761 108.897 29.9797 108.897 30.2141H107.451C107.451 29.912 107.529 29.6125 107.686 29.3157C107.842 29.0188 108.066 28.7506 108.357 28.511C108.654 28.2662 109.009 28.0735 109.42 27.9329C109.837 27.787 110.3 27.7141 110.811 27.7141C111.425 27.7141 111.967 27.8183 112.436 28.0266C112.91 28.2349 113.279 28.55 113.545 28.9719C113.816 29.3886 113.951 29.912 113.951 30.5422V34.4797C113.951 34.761 113.975 35.0605 114.022 35.3782C114.074 35.6959 114.149 35.9693 114.248 36.1985V36.3235H112.74C112.667 36.1568 112.61 35.9355 112.568 35.6594C112.527 35.3782 112.506 35.1178 112.506 34.8782ZM112.756 31.1985L112.772 32.2141H111.311C110.899 32.2141 110.532 32.248 110.209 32.3157C109.886 32.3782 109.615 32.4745 109.397 32.6047C109.178 32.7349 109.011 32.899 108.897 33.0969C108.782 33.2896 108.725 33.5162 108.725 33.7766C108.725 34.0422 108.785 34.2844 108.904 34.5032C109.024 34.7219 109.204 34.8964 109.443 35.0266C109.688 35.1516 109.988 35.2141 110.342 35.2141C110.785 35.2141 111.175 35.1204 111.514 34.9329C111.852 34.7454 112.121 34.5162 112.318 34.2454C112.522 33.9745 112.631 33.7115 112.647 33.4563L113.264 34.1516C113.227 34.3704 113.128 34.6125 112.967 34.8782C112.805 35.1438 112.589 35.399 112.318 35.6438C112.053 35.8834 111.735 36.0839 111.365 36.2454C111.001 36.4016 110.589 36.4797 110.131 36.4797C109.558 36.4797 109.055 36.3678 108.623 36.1438C108.196 35.9198 107.863 35.6204 107.623 35.2454C107.389 34.8652 107.272 34.4407 107.272 33.9719C107.272 33.5188 107.36 33.1204 107.537 32.7766C107.714 32.4277 107.969 32.1386 108.303 31.9094C108.636 31.675 109.037 31.498 109.506 31.3782C109.975 31.2584 110.498 31.1985 111.076 31.1985H112.756ZM117.99 29.675V36.3235H116.545V27.8704H117.912L117.99 29.675ZM117.646 31.7766L117.045 31.7532C117.05 31.175 117.136 30.6412 117.303 30.1516C117.469 29.6568 117.704 29.2271 118.006 28.8625C118.308 28.498 118.667 28.2167 119.084 28.0188C119.506 27.8157 119.972 27.7141 120.482 27.7141C120.899 27.7141 121.274 27.7714 121.607 27.886C121.941 27.9954 122.224 28.1724 122.459 28.4172C122.698 28.662 122.881 28.9797 123.006 29.3704C123.131 29.7558 123.193 30.2271 123.193 30.7844V36.3235H121.74V30.7688C121.74 30.3261 121.675 29.9719 121.545 29.7063C121.414 29.4355 121.224 29.2402 120.974 29.1204C120.724 28.9954 120.417 28.9329 120.053 28.9329C119.693 28.9329 119.365 29.0084 119.068 29.1594C118.776 29.3105 118.524 29.5188 118.31 29.7844C118.102 30.05 117.938 30.3547 117.818 30.6985C117.704 31.037 117.646 31.3964 117.646 31.7766ZM129.247 27.8704V28.9797H124.677V27.8704H129.247ZM126.224 25.8157H127.669V34.2297C127.669 34.5162 127.714 34.7323 127.802 34.8782C127.891 35.024 128.005 35.1204 128.146 35.1672C128.287 35.2141 128.438 35.2375 128.599 35.2375C128.719 35.2375 128.844 35.2271 128.974 35.2063C129.109 35.1803 129.211 35.1594 129.279 35.1438L129.287 36.3235C129.172 36.3599 129.021 36.3938 128.833 36.425C128.651 36.4615 128.43 36.4797 128.169 36.4797C127.815 36.4797 127.49 36.4094 127.193 36.2688C126.896 36.1282 126.659 35.8938 126.482 35.5657C126.31 35.2323 126.224 34.7844 126.224 34.2219V25.8157Z" fill="#666666"/>
</svg>
