<svg width="256" height="36" viewBox="0 0 256 36" fill="none" xmlns="http://www.w3.org/2000/svg">
<path d="M54.848 27.6006C54.7157 27.7301 54.504 27.8854 54.2129 28.0666C53.9219 28.2478 53.525 28.4548 53.0487 28.636C52.5724 28.8172 51.9903 28.9984 51.2759 29.1278C50.5879 29.2573 49.7941 29.3349 48.8945 29.3349C47.1746 29.3349 45.6663 29.0502 44.3963 28.5325C43.1262 27.9889 42.0942 27.2382 41.274 26.2546C40.4537 25.271 39.8451 24.132 39.4747 22.8119C39.0778 21.4918 38.8926 20.0163 38.8926 18.4373C38.8926 16.8583 39.1043 15.3829 39.5276 14.0369C39.951 12.6908 40.5596 11.526 41.4063 10.5424C42.2265 9.55874 43.2849 8.78219 44.5286 8.2386C45.7722 7.69502 47.2539 7.41028 48.9474 7.41028C49.7677 7.41028 50.535 7.48793 51.1965 7.61736C51.858 7.77267 52.4666 7.92798 52.9693 8.13506C53.4721 8.34214 53.8954 8.54922 54.2129 8.7563C54.5569 8.96339 54.7951 9.17046 54.9538 9.29988C55.139 9.4552 55.3243 9.66228 55.4566 9.89525C55.5889 10.1282 55.6682 10.3871 55.6682 10.6459C55.6682 11.0601 55.5095 11.4742 55.192 11.8884C54.8744 12.3026 54.5305 12.6908 54.1336 13.0532C53.869 12.7944 53.5779 12.5355 53.2604 12.2767C52.9429 12.0178 52.5724 11.7849 52.1755 11.5778C51.7786 11.3707 51.3288 11.2154 50.8261 11.086C50.3233 10.9565 49.7677 10.8789 49.1326 10.8789C48.0477 10.8789 47.1216 11.086 46.3808 11.526C45.6399 11.966 45.0578 12.5096 44.6079 13.2085C44.1581 13.9074 43.8406 14.684 43.6554 15.5641C43.4702 16.4442 43.3643 17.3501 43.3643 18.282C43.3643 19.2656 43.4702 20.1975 43.6554 21.1035C43.8406 22.0095 44.1846 22.786 44.6609 23.4849C45.1371 24.1838 45.7457 24.7274 46.5131 25.1415C47.2804 25.5557 48.2065 25.7628 49.3443 25.7628C49.9529 25.7628 50.4821 25.6851 50.9848 25.5557C51.4876 25.4004 51.9374 25.2192 52.3078 25.0121C52.7047 24.805 53.0222 24.5721 53.3133 24.365C53.6044 24.132 53.8425 23.925 54.0277 23.7696C54.16 23.925 54.2923 24.1061 54.4775 24.3132C54.6628 24.5203 54.8215 24.7533 54.9538 24.9603C55.1126 25.1933 55.2184 25.4263 55.3507 25.6592C55.4566 25.8922 55.5095 26.0993 55.5095 26.2805C55.5095 26.5652 55.4566 26.7723 55.3507 26.9794C55.2449 27.1606 55.0597 27.3677 54.848 27.6006ZM71.359 25.1933C71.359 26.85 71.5972 28.0666 72.0999 28.8172C71.703 28.9725 71.359 29.0761 71.0151 29.1278C70.6711 29.1796 70.3271 29.2314 69.9567 29.2314C69.1893 29.2314 68.6072 29.0761 68.2103 28.7913C67.8134 28.5066 67.5488 28.0666 67.443 27.523C66.9667 28.0148 66.3581 28.4289 65.5643 28.7655C64.797 29.102 63.8444 29.2573 62.7331 29.2573C62.1509 29.2573 61.5688 29.1796 60.9867 29.0243C60.4046 28.869 59.8754 28.6101 59.3991 28.2478C58.9228 27.8854 58.5524 27.4194 58.2349 26.8241C57.9438 26.2287 57.785 25.5039 57.785 24.6497C57.785 23.5884 58.0496 22.7084 58.5788 22.0353C59.108 21.3623 59.7695 20.8446 60.5633 20.4563C61.3571 20.0681 62.2303 19.8092 63.13 19.6539C64.0561 19.4986 64.9028 19.421 65.6701 19.3692C65.9347 19.3433 66.1729 19.3433 66.4375 19.3433H67.1254V18.7738C67.1254 17.9714 66.9138 17.4019 66.4639 17.0395C66.0141 16.703 65.2997 16.5218 64.3207 16.5218C63.3946 16.5218 62.5743 16.6771 61.8599 16.9619C61.1455 17.2466 60.431 17.5831 59.7431 17.9714C59.452 17.609 59.1874 17.2207 59.0287 16.7807C58.8434 16.3406 58.7641 16.03 58.7641 15.8229C58.7641 15.5382 58.9228 15.2535 59.2668 14.9687C59.6108 14.684 60.0606 14.451 60.6427 14.218C61.2248 13.9851 61.8863 13.8298 62.6537 13.6745C63.3946 13.545 64.1884 13.4674 65.0351 13.4674C66.1993 13.4674 67.1784 13.5709 67.9722 13.8039C68.766 14.0369 69.4275 14.3992 69.9302 14.8652C70.4329 15.357 70.8034 15.9523 71.0151 16.6771C71.2267 17.4019 71.3326 18.2561 71.3326 19.2139L71.359 25.1933ZM67.2313 21.5435H66.7815C66.6227 21.5435 66.4904 21.5435 66.3316 21.5694C65.8024 21.6212 65.2732 21.6729 64.744 21.7506C64.2148 21.8283 63.7386 21.9836 63.3417 22.1907C62.9448 22.3977 62.6008 22.6825 62.3362 23.019C62.0716 23.3555 61.9393 23.7955 61.9393 24.3132C61.9393 24.9086 62.098 25.4004 62.442 25.8146C62.786 26.2287 63.3681 26.4358 64.1884 26.4358C64.5853 26.4358 64.9822 26.384 65.3526 26.2805C65.7231 26.1769 66.0406 26.0475 66.3316 25.8663C66.6227 25.6851 66.8344 25.5039 66.9931 25.3227C67.1519 25.1157 67.2313 24.9345 67.2313 24.7792V21.5435ZM79.3764 15.3311C79.7204 14.9428 80.2496 14.5287 80.9905 14.1145C81.7314 13.7003 82.631 13.4933 83.7423 13.4933C84.5361 13.4933 85.3035 13.6227 86.0179 13.8815C86.7323 14.1404 87.3674 14.5804 87.923 15.1499C88.4787 15.7453 88.9285 16.5218 89.246 17.4796C89.59 18.4373 89.7488 19.628 89.7488 21.0517C89.7488 22.6825 89.5635 24.0544 89.1666 25.1157C88.7697 26.1769 88.2935 27.0312 87.6849 27.6265C87.0763 28.2478 86.3883 28.6878 85.6475 28.9467C84.9066 29.2055 84.1392 29.3349 83.3984 29.3349C82.7898 29.3349 82.2341 29.2573 81.7843 29.1278C81.3345 28.9984 80.9376 28.8431 80.62 28.6619C80.3025 28.5066 80.0644 28.3254 79.8792 28.1701C79.7204 28.0148 79.5881 27.8854 79.5616 27.8336V35.5991H75.1693V13.9592C75.2751 13.9333 75.4074 13.9074 75.5662 13.9074C75.6985 13.8815 75.8572 13.8815 76.016 13.8557C76.2012 13.8557 76.3864 13.8298 76.6246 13.8298C77.339 13.8298 77.9476 13.9333 78.4503 14.1663C78.9266 14.3992 79.2441 14.7875 79.3764 15.3311ZM85.1976 21.1552C85.1976 20.534 85.1447 19.9386 85.0389 19.3951C84.933 18.8515 84.7478 18.3855 84.5097 17.9714C84.2715 17.5831 83.9276 17.2725 83.5042 17.0395C83.0808 16.8066 82.5781 16.703 81.9695 16.703C81.0699 16.703 80.4348 16.8842 80.0909 17.1948C79.7469 17.5313 79.5616 17.8937 79.5616 18.3079V25.0121C79.7204 25.1933 80.0379 25.3745 80.4878 25.6075C80.9376 25.8404 81.4403 25.944 82.0224 25.944C83.1073 25.944 83.9011 25.5298 84.4303 24.6756C84.933 23.8473 85.1976 22.6825 85.1976 21.1552ZM93.1357 26.5911C92.9769 26.177 92.8975 25.7369 92.8446 25.271C92.7917 24.805 92.7917 24.3391 92.7917 23.8732V9.24812C92.9504 9.22223 93.1092 9.19635 93.268 9.19635C93.4267 9.17046 93.5855 9.17047 93.7442 9.14458C93.903 9.14458 94.0882 9.11869 94.247 9.11869C94.591 9.11869 94.9349 9.14458 95.2789 9.22223C95.6229 9.274 95.9404 9.40343 96.205 9.61051C96.4961 9.7917 96.7078 10.0506 96.893 10.3871C97.0517 10.7236 97.1576 11.1377 97.1576 11.6554V13.9074H101.682V17.0913H97.184V23.8214C97.184 25.2969 97.7926 26.0216 99.0098 26.0216C99.3008 26.0216 99.5919 25.9699 99.8565 25.8922C100.121 25.7887 100.359 25.6851 100.571 25.5816C100.783 25.4781 100.968 25.3486 101.127 25.2192C101.285 25.0898 101.391 24.9862 101.471 24.9345C101.788 25.4004 102.053 25.7887 102.211 26.1252C102.37 26.4617 102.476 26.7723 102.476 27.0829C102.476 27.3677 102.37 27.6265 102.132 27.8854C101.894 28.1442 101.576 28.4031 101.18 28.6101C100.783 28.8431 100.28 29.0243 99.6977 29.1537C99.1156 29.2832 98.4806 29.3608 97.7926 29.3608C96.4696 29.3608 95.4112 29.102 94.6703 28.6101C93.9824 28.0666 93.4532 27.4194 93.1357 26.5911ZM112.795 26.1769C113.325 26.1769 113.801 26.1252 114.224 25.9958C114.621 25.8922 114.992 25.7369 115.336 25.5816C115.653 25.4263 115.944 25.2192 116.182 25.038C116.42 24.8309 116.632 24.6497 116.817 24.4944C117.082 24.805 117.347 25.2192 117.638 25.711C117.929 26.2028 118.061 26.617 118.061 26.9276C118.061 27.3935 117.796 27.8077 117.267 28.196C116.817 28.5325 116.182 28.8172 115.336 29.0761C114.515 29.309 113.536 29.4385 112.425 29.4385C111.42 29.4385 110.414 29.309 109.435 29.0502C108.456 28.7913 107.583 28.3513 106.815 27.7301C106.048 27.1088 105.44 26.2546 104.963 25.1933C104.487 24.132 104.249 22.786 104.249 21.1811C104.249 19.861 104.461 18.7221 104.884 17.7643C105.307 16.8066 105.863 16.0041 106.551 15.3829C107.239 14.7616 108.033 14.2957 108.932 13.9851C109.805 13.7003 110.705 13.545 111.631 13.545C112.822 13.545 113.854 13.7262 114.701 14.0886C115.547 14.451 116.209 14.9428 116.738 15.5641C117.267 16.1853 117.638 16.8842 117.876 17.6867C118.114 18.4891 118.22 19.3174 118.22 20.1975V20.6375C118.22 20.8187 118.22 20.9741 118.193 21.1811C118.193 21.3623 118.167 21.5435 118.167 21.7247C118.167 21.9059 118.14 22.0353 118.114 22.1389H108.615C108.694 23.3037 109.065 24.2615 109.726 25.038C110.361 25.7887 111.393 26.1769 112.795 26.1769ZM114.277 19.7833C114.277 18.7738 114.066 17.9455 113.669 17.3243C113.272 16.703 112.557 16.3665 111.525 16.3665C110.626 16.3665 109.938 16.6771 109.409 17.2725C108.879 17.8678 108.615 18.6962 108.615 19.7833H114.277ZM125.867 15.4088C125.999 15.2276 126.158 15.0205 126.369 14.7875C126.581 14.5546 126.846 14.3475 127.163 14.1663C127.481 13.9851 127.825 13.8298 128.195 13.7003C128.566 13.5709 128.963 13.5192 129.412 13.5192C129.677 13.5192 129.942 13.545 130.233 13.5709C130.524 13.6227 130.788 13.7004 131.026 13.8039C131.265 13.9074 131.476 14.0627 131.635 14.2698C131.794 14.4769 131.873 14.7099 131.873 14.9946C131.873 15.4605 131.767 15.9782 131.529 16.5736C131.291 17.1689 131.053 17.6866 130.815 18.1008C130.444 17.8161 130.074 17.5831 129.73 17.4278C129.359 17.2725 128.936 17.1948 128.433 17.1948C127.772 17.1948 127.216 17.376 126.766 17.7643C126.317 18.1526 126.078 18.5926 126.078 19.1362V29.3349H121.686V13.9333C121.792 13.9074 121.924 13.8815 122.083 13.8815C122.215 13.8557 122.374 13.8557 122.533 13.8298C122.691 13.8298 122.903 13.8039 123.141 13.8039C123.829 13.8039 124.438 13.9333 124.941 14.1922C125.417 14.4769 125.734 14.8652 125.867 15.4088ZM138.329 15.4088C138.462 15.2276 138.62 15.0205 138.832 14.7875C139.044 14.5546 139.308 14.3475 139.626 14.1663C139.943 13.9851 140.287 13.8298 140.658 13.7003C141.028 13.5709 141.425 13.5192 141.875 13.5192C142.14 13.5192 142.404 13.545 142.695 13.5709C142.986 13.6227 143.251 13.7004 143.489 13.8039C143.727 13.9074 143.939 14.0627 144.098 14.2698C144.256 14.4769 144.336 14.7099 144.336 14.9946C144.336 15.4605 144.23 15.9782 143.992 16.5736C143.754 17.1689 143.516 17.6866 143.277 18.1008C142.907 17.8161 142.537 17.5831 142.193 17.4278C141.822 17.2725 141.399 17.1948 140.896 17.1948C140.235 17.1948 139.679 17.376 139.229 17.7643C138.779 18.1526 138.541 18.5926 138.541 19.1362V29.3349H134.149V13.9333C134.255 13.9074 134.387 13.8815 134.546 13.8815C134.678 13.8557 134.837 13.8557 134.995 13.8298C135.154 13.8298 135.366 13.8039 135.604 13.8039C136.292 13.8039 136.901 13.9333 137.403 14.1922C137.88 14.4769 138.197 14.8652 138.329 15.4088ZM159.259 25.1933C159.259 26.85 159.497 28.0666 160 28.8172C159.603 28.9725 159.259 29.0761 158.915 29.1278C158.571 29.1796 158.227 29.2314 157.857 29.2314C157.09 29.2314 156.507 29.0761 156.111 28.7913C155.714 28.5066 155.449 28.0666 155.343 27.523C154.867 28.0148 154.258 28.4289 153.465 28.7655C152.697 29.102 151.745 29.2573 150.633 29.2573C150.051 29.2573 149.469 29.1796 148.887 29.0243C148.305 28.869 147.776 28.6101 147.299 28.2478C146.823 27.8854 146.453 27.4194 146.135 26.8241C145.844 26.2287 145.685 25.5039 145.685 24.6497C145.685 23.5884 145.95 22.7084 146.479 22.0353C147.008 21.3623 147.67 20.8446 148.464 20.4563C149.257 20.0681 150.131 19.8092 151.03 19.6539C151.956 19.4986 152.803 19.421 153.57 19.3692C153.835 19.3433 154.073 19.3433 154.338 19.3433H155.026V18.7738C155.026 17.9714 154.814 17.4019 154.364 17.0395C153.914 16.703 153.2 16.5218 152.221 16.5218C151.295 16.5218 150.475 16.6771 149.76 16.9619C149.046 17.2466 148.331 17.5831 147.643 17.9714C147.352 17.609 147.088 17.2207 146.929 16.7807C146.744 16.3406 146.664 16.03 146.664 15.8229C146.664 15.5382 146.823 15.2535 147.167 14.9687C147.511 14.684 147.961 14.451 148.543 14.218C149.125 13.9851 149.787 13.8298 150.554 13.6745C151.295 13.545 152.089 13.4674 152.935 13.4674C154.1 13.4674 155.079 13.5709 155.872 13.8039C156.666 14.0369 157.328 14.3992 157.83 14.8652C158.333 15.357 158.704 15.9523 158.915 16.6771C159.127 17.4019 159.233 18.2561 159.233 19.2139L159.259 25.1933ZM155.132 21.5435H154.682C154.523 21.5435 154.391 21.5435 154.232 21.5694C153.703 21.6212 153.173 21.6729 152.644 21.7506C152.115 21.8283 151.639 21.9836 151.242 22.1907C150.845 22.3977 150.501 22.6825 150.236 23.019C149.972 23.3555 149.839 23.7955 149.839 24.3132C149.839 24.9086 149.998 25.4004 150.342 25.8146C150.686 26.2287 151.268 26.4358 152.089 26.4358C152.485 26.4358 152.882 26.384 153.253 26.2805C153.623 26.1769 153.941 26.0475 154.232 25.8663C154.523 25.6851 154.735 25.5039 154.893 25.3227C155.052 25.1157 155.132 24.9345 155.132 24.7792V21.5435Z" fill="#838383"/>
<path d="M0.445312 13.2369H15.3299H24.3689V4.27905L0.445312 13.2369Z" fill="#838383"/>
<path d="M24.3687 4.27906V35.9427L35.6809 0.057251L24.3687 4.27906Z" fill="#838383"/>
<path d="M24.3681 13.2371H15.3291L24.3681 35.9158V13.2371Z" fill="#838383"/>
<path d="M0.445312 13.2371L17.6573 19.0556L15.3299 13.2371H0.445312Z" fill="#838383"/>
<path d="M171.06 26L172.92 19.92L168 16.4H174.08L176 10L177.92 16.4H184L179.08 19.92L180.94 26L176 22.24L171.06 26Z" fill="#7242EE"/>
<path d="M189.06 26L190.92 19.92L186 16.4H192.08L194 10L195.92 16.4H202L197.08 19.92L198.94 26L194 22.24L189.06 26Z" fill="#7242EE"/>
<path d="M207.06 26L208.92 19.92L204 16.4H210.08L212 10L213.92 16.4H220L215.08 19.92L216.94 26L212 22.24L207.06 26Z" fill="#7242EE"/>
<path d="M225.06 26L226.92 19.92L222 16.4H228.08L230 10L231.92 16.4H238L233.08 19.92L234.94 26L230 22.24L225.06 26Z" fill="#7242EE"/>
<path d="M243.06 26L244.92 19.92L240 16.4H246.08L248 10L249.92 16.4H256L251.08 19.92L252.94 26L248 22.24L243.06 26Z" fill="#7242EE"/>
</svg>
