<svg width="126" height="39" viewBox="0 0 126 39" fill="none" xmlns="http://www.w3.org/2000/svg">
<path d="M20.0387 0.123047L20.6463 1.99328H22.6128L21.0219 3.14915L21.6296 5.01938L20.0387 3.86351L18.4477 5.01938L19.0554 3.14915L17.4645 1.99328H19.431L20.0387 0.123047Z" fill="#666666"/>
<path d="M28.2808 2.33752L28.8885 4.20776H30.855L29.2641 5.36362L29.8718 7.23385L28.2808 6.07799L26.6899 7.23385L27.2976 5.36362L25.7067 4.20776H27.6732L28.2808 2.33752Z" fill="#666666"/>
<path d="M34.4332 8.24292L35.0409 10.1132H37.0073L35.4164 11.269L36.0241 13.1392L34.4332 11.9834L32.8423 13.1392L33.4499 11.269L31.859 10.1132H33.8255L34.4332 8.24292Z" fill="#666666"/>
<path d="M36.7691 16.8549L37.3768 18.7251H39.3433L37.7524 19.881L38.36 21.7512L36.7691 20.5953L35.1782 21.7512L35.7859 19.881L34.195 18.7251H36.1614L36.7691 16.8549Z" fill="#666666"/>
<path d="M33.941 24.8518L34.5487 26.722H36.5152L34.9242 27.8779L35.5319 29.7481L33.941 28.5923L32.3501 29.7481L32.9578 27.8779L31.3668 26.722H33.3333L33.941 24.8518Z" fill="#666666"/>
<path d="M28.4039 30.634L29.0116 32.5043H30.978L29.3871 33.6601L29.9948 35.5304L28.4039 34.3745L26.813 35.5304L27.4207 33.6601L25.8297 32.5043H27.7962L28.4039 30.634Z" fill="#666666"/>
<path d="M19.9156 33.5868L20.5233 35.457H22.4898L20.8988 36.6129L21.5065 38.4831L19.9156 37.3273L18.3247 38.4831L18.9324 36.6129L17.3415 35.457H19.3079L19.9156 33.5868Z" fill="#666666"/>
<path d="M11.4254 30.634L12.033 32.5043H13.9995L12.4086 33.6601L13.0163 35.5304L11.4254 34.3745L9.83446 35.5304L10.4421 33.6601L8.85122 32.5043H10.8177L11.4254 30.634Z" fill="#666666"/>
<path d="M6.01327 24.8518L6.62094 26.722H8.58742L6.9965 27.8779L7.60418 29.7481L6.01327 28.5923L4.42235 29.7481L5.03003 27.8779L3.43911 26.722H5.40559L6.01327 24.8518Z" fill="#666666"/>
<path d="M3.18319 16.8549L3.79086 18.7251H5.75734L4.16643 19.881L4.7741 21.7512L3.18319 20.5953L1.59227 21.7512L2.19995 19.881L0.609034 18.7251H2.57551L3.18319 16.8549Z" fill="#666666"/>
<path d="M5.64412 8.24292L6.2518 10.1132H8.21828L6.62736 11.269L7.23504 13.1392L5.64412 11.9834L4.05321 13.1392L4.66089 11.269L3.06997 10.1132H5.03645L5.64412 8.24292Z" fill="#666666"/>
<path d="M11.7945 2.33752L12.4022 4.20776H14.3687L12.7778 5.36362L13.3854 7.23385L11.7945 6.07799L10.2036 7.23385L10.8113 5.36362L9.22036 4.20776H11.1868L11.7945 2.33752Z" fill="#666666"/>
<path d="M59.5781 9.55371V14.1396C59.3906 14.3532 59.1042 14.5824 58.7188 14.8271C58.3385 15.0719 57.8516 15.2829 57.2578 15.46C56.6641 15.6318 55.9557 15.7178 55.1328 15.7178C54.388 15.7178 53.7109 15.598 53.1016 15.3584C52.4922 15.1136 51.9688 14.7568 51.5312 14.2881C51.0938 13.8141 50.7552 13.236 50.5156 12.5537C50.2812 11.8714 50.1641 11.0902 50.1641 10.21V9.53809C50.1641 8.65788 50.2812 7.87663 50.5156 7.19434C50.75 6.51204 51.0807 5.93652 51.5078 5.46777C51.9349 4.99382 52.4427 4.63444 53.0312 4.38965C53.6198 4.14486 54.2708 4.02246 54.9844 4.02246C56 4.02246 56.8307 4.18652 57.4766 4.51465C58.1224 4.83757 58.612 5.28548 58.9453 5.8584C59.2839 6.43132 59.4922 7.09017 59.5703 7.83496H57.1172C57.0651 7.45475 56.9609 7.12663 56.8047 6.85059C56.6536 6.57454 56.4375 6.36361 56.1562 6.21777C55.875 6.06673 55.5104 5.99121 55.0625 5.99121C54.7031 5.99121 54.3776 6.06673 54.0859 6.21777C53.7995 6.36361 53.5573 6.58496 53.3594 6.88184C53.1615 7.17871 53.0104 7.5485 52.9062 7.99121C52.8021 8.42871 52.75 8.93913 52.75 9.52246V10.21C52.75 10.7933 52.8021 11.3063 52.9062 11.749C53.0156 12.1917 53.1745 12.5615 53.3828 12.8584C53.5911 13.1501 53.8542 13.3714 54.1719 13.5225C54.4948 13.6735 54.8698 13.749 55.2969 13.749C55.6302 13.749 55.9115 13.723 56.1406 13.6709C56.3698 13.6136 56.5573 13.5433 56.7031 13.46C56.849 13.3714 56.9583 13.2907 57.0312 13.2178V11.3271H55.0078V9.55371H59.5781ZM65.2419 15.5615H62.7419L62.7575 13.5928H65.2419C65.8096 13.5928 66.2887 13.4626 66.6794 13.2021C67.07 12.9365 67.3669 12.5459 67.57 12.0303C67.7731 11.5094 67.8747 10.8766 67.8747 10.1318V9.6084C67.8747 9.0459 67.8174 8.55111 67.7028 8.12402C67.5882 7.69173 67.419 7.32975 67.195 7.03809C66.971 6.74642 66.6924 6.52767 66.3591 6.38184C66.0309 6.236 65.6533 6.16309 65.2262 6.16309H62.695V4.18652H65.2262C65.9971 4.18652 66.7002 4.31673 67.3356 4.57715C67.9762 4.83757 68.5283 5.20996 68.9919 5.69434C69.4606 6.17871 69.8226 6.75163 70.0778 7.41309C70.333 8.07454 70.4606 8.81152 70.4606 9.62402V10.1318C70.4606 10.9391 70.333 11.6761 70.0778 12.3428C69.8226 13.0042 69.4606 13.5771 68.9919 14.0615C68.5283 14.5407 67.9789 14.9105 67.3434 15.1709C66.708 15.4313 66.0075 15.5615 65.2419 15.5615ZM64.1872 4.18652V15.5615H61.6403V4.18652H64.1872ZM76.8197 11.6084H73.9603V9.63184H76.8197C77.2416 9.63184 77.5801 9.56152 77.8353 9.4209C78.0957 9.28027 78.2858 9.08757 78.4056 8.84277C78.5306 8.59277 78.5931 8.31152 78.5931 7.99902C78.5931 7.67611 78.5306 7.37663 78.4056 7.10059C78.2858 6.81934 78.0957 6.59277 77.8353 6.4209C77.5801 6.24902 77.2416 6.16309 76.8197 6.16309H74.8822V15.5615H72.3353V4.18652H76.8197C77.7259 4.18652 78.502 4.35059 79.1478 4.67871C79.7989 5.00684 80.2962 5.45736 80.64 6.03027C80.989 6.59798 81.1634 7.24902 81.1634 7.9834C81.1634 8.71777 80.989 9.35579 80.64 9.89746C80.2962 10.4391 79.7989 10.861 79.1478 11.1631C78.502 11.46 77.7259 11.6084 76.8197 11.6084ZM83.0303 4.18652H87.3975C88.2673 4.18652 89.0199 4.31673 89.6553 4.57715C90.2959 4.83757 90.7881 5.22298 91.1319 5.7334C91.4756 6.24382 91.6475 6.87402 91.6475 7.62402C91.6475 8.24902 91.5459 8.78027 91.3428 9.21777C91.1397 9.65527 90.8532 10.0173 90.4834 10.3037C90.1189 10.5902 89.6918 10.8219 89.2022 10.999L88.3741 11.4521H84.6553L84.6397 9.47559H87.4053C87.7855 9.47559 88.1006 9.40788 88.3506 9.27246C88.6006 9.13704 88.7881 8.94694 88.9131 8.70215C89.0433 8.45215 89.1084 8.16048 89.1084 7.82715C89.1084 7.4834 89.0433 7.18652 88.9131 6.93652C88.7829 6.68652 88.5902 6.49642 88.335 6.36621C88.085 6.23079 87.7725 6.16309 87.3975 6.16309H85.5772V15.5615H83.0303V4.18652ZM89.3272 15.5615L86.7725 10.5068L89.46 10.499L92.0537 15.4443V15.5615H89.3272Z" fill="#666666"/>
<path d="M57.6641 30.9443H59.1641C59.0859 31.6631 58.8802 32.3063 58.5469 32.874C58.2135 33.4417 57.7422 33.8923 57.1328 34.2256C56.5234 34.5537 55.763 34.7178 54.8516 34.7178C54.1849 34.7178 53.5781 34.5928 53.0312 34.3428C52.4896 34.0928 52.0234 33.7386 51.6328 33.2803C51.2422 32.8167 50.9401 32.262 50.7266 31.6162C50.5182 30.9652 50.4141 30.2412 50.4141 29.4443V28.3115C50.4141 27.5146 50.5182 26.7933 50.7266 26.1475C50.9401 25.4964 51.2448 24.9391 51.6406 24.4756C52.0417 24.012 52.5234 23.6553 53.0859 23.4053C53.6484 23.1553 54.2812 23.0303 54.9844 23.0303C55.8438 23.0303 56.5703 23.1917 57.1641 23.5146C57.7578 23.8376 58.2188 24.2855 58.5469 24.8584C58.8802 25.4261 59.0859 26.085 59.1641 26.835H57.6641C57.5911 26.3037 57.4557 25.848 57.2578 25.4678C57.0599 25.0824 56.7786 24.7855 56.4141 24.5771C56.0495 24.3688 55.5729 24.2646 54.9844 24.2646C54.4792 24.2646 54.0339 24.361 53.6484 24.5537C53.2682 24.7464 52.9479 25.0199 52.6875 25.374C52.4323 25.7282 52.2396 26.1527 52.1094 26.6475C51.9792 27.1423 51.9141 27.6917 51.9141 28.2959V29.4443C51.9141 30.0016 51.9714 30.5251 52.0859 31.0146C52.2057 31.5042 52.3854 31.9339 52.625 32.3037C52.8646 32.6735 53.1693 32.9652 53.5391 33.1787C53.9089 33.387 54.3464 33.4912 54.8516 33.4912C55.4922 33.4912 56.0026 33.3896 56.3828 33.1865C56.763 32.9834 57.0495 32.6917 57.2422 32.3115C57.4401 31.9313 57.5807 31.4756 57.6641 30.9443ZM60.9372 30.4287V30.249C60.9372 29.6396 61.0257 29.0745 61.2028 28.5537C61.3799 28.0277 61.6351 27.5719 61.9684 27.1865C62.3018 26.7959 62.7054 26.4938 63.1794 26.2803C63.6533 26.0615 64.1846 25.9521 64.7731 25.9521C65.3669 25.9521 65.9007 26.0615 66.3747 26.2803C66.8539 26.4938 67.2601 26.7959 67.5934 27.1865C67.932 27.5719 68.1898 28.0277 68.3669 28.5537C68.544 29.0745 68.6325 29.6396 68.6325 30.249V30.4287C68.6325 31.0381 68.544 31.6032 68.3669 32.124C68.1898 32.6449 67.932 33.1006 67.5934 33.4912C67.2601 33.8766 66.8565 34.1787 66.3825 34.3975C65.9137 34.611 65.3825 34.7178 64.7887 34.7178C64.195 34.7178 63.6611 34.611 63.1872 34.3975C62.7132 34.1787 62.307 33.8766 61.9684 33.4912C61.6351 33.1006 61.3799 32.6449 61.2028 32.124C61.0257 31.6032 60.9372 31.0381 60.9372 30.4287ZM62.3825 30.249V30.4287C62.3825 30.8506 62.432 31.249 62.5309 31.624C62.6299 31.9938 62.7783 32.3219 62.9762 32.6084C63.1794 32.8949 63.432 33.1214 63.7341 33.2881C64.0361 33.4495 64.3877 33.5303 64.7887 33.5303C65.1846 33.5303 65.5309 33.4495 65.8278 33.2881C66.1299 33.1214 66.3799 32.8949 66.5778 32.6084C66.7757 32.3219 66.9242 31.9938 67.0231 31.624C67.1273 31.249 67.1794 30.8506 67.1794 30.4287V30.249C67.1794 29.8324 67.1273 29.4391 67.0231 29.0693C66.9242 28.6943 66.7731 28.3636 66.57 28.0771C66.3721 27.7855 66.1221 27.5563 65.82 27.3896C65.5231 27.223 65.1742 27.1396 64.7731 27.1396C64.3773 27.1396 64.0283 27.223 63.7262 27.3896C63.4294 27.5563 63.1794 27.7855 62.9762 28.0771C62.7783 28.3636 62.6299 28.6943 62.5309 29.0693C62.432 29.4391 62.3825 29.8324 62.3825 30.249ZM72.2025 27.7881V34.5615H70.7494V26.1084H72.1244L72.2025 27.7881ZM71.9056 30.0146L71.2337 29.9912C71.239 29.4131 71.3145 28.8792 71.4603 28.3896C71.6061 27.8949 71.8223 27.4652 72.1087 27.1006C72.3952 26.736 72.752 26.4548 73.1791 26.2568C73.6061 26.0537 74.1009 25.9521 74.6634 25.9521C75.0593 25.9521 75.4239 26.0094 75.7572 26.124C76.0905 26.2334 76.3796 26.4079 76.6244 26.6475C76.8692 26.887 77.0593 27.1943 77.1947 27.5693C77.3301 27.9443 77.3978 28.3975 77.3978 28.9287V34.5615H75.9525V28.999C75.9525 28.5563 75.877 28.2021 75.7259 27.9365C75.5801 27.6709 75.3718 27.4782 75.1009 27.3584C74.8301 27.2334 74.5124 27.1709 74.1478 27.1709C73.7207 27.1709 73.364 27.2464 73.0775 27.3975C72.791 27.5485 72.5619 27.7568 72.39 28.0225C72.2181 28.2881 72.0931 28.5928 72.015 28.9365C71.9421 29.2751 71.9056 29.6344 71.9056 30.0146ZM77.3822 29.2178L76.4134 29.5146C76.4186 29.0511 76.4942 28.6058 76.64 28.1787C76.791 27.7516 77.0072 27.3714 77.2884 27.0381C77.5749 26.7048 77.9265 26.4417 78.3431 26.249C78.7598 26.0511 79.2364 25.9521 79.7728 25.9521C80.2259 25.9521 80.627 26.012 80.9759 26.1318C81.3301 26.2516 81.627 26.4365 81.8666 26.6865C82.1114 26.9313 82.2962 27.2464 82.4212 27.6318C82.5462 28.0173 82.6087 28.4756 82.6087 29.0068V34.5615H81.1556V28.9912C81.1556 28.5173 81.0801 28.1501 80.9291 27.8896C80.7832 27.624 80.5749 27.4391 80.3041 27.335C80.0384 27.2256 79.7207 27.1709 79.3509 27.1709C79.0332 27.1709 78.752 27.2256 78.5072 27.335C78.2624 27.4443 78.0567 27.5954 77.89 27.7881C77.7233 27.9756 77.5957 28.1917 77.5072 28.4365C77.4239 28.6813 77.3822 28.9417 77.3822 29.2178ZM86.5616 27.7334V37.8115H85.1084V26.1084H86.4366L86.5616 27.7334ZM92.2569 30.2646V30.4287C92.2569 31.0433 92.184 31.6136 92.0381 32.1396C91.8923 32.6605 91.6787 33.1136 91.3975 33.499C91.1215 33.8844 90.7803 34.1839 90.3741 34.3975C89.9678 34.611 89.5017 34.7178 88.9756 34.7178C88.4392 34.7178 87.9652 34.6292 87.5537 34.4521C87.1423 34.2751 86.7933 34.0173 86.5069 33.6787C86.2204 33.3402 85.9912 32.9339 85.8194 32.46C85.6527 31.986 85.5381 31.4521 85.4756 30.8584V29.9834C85.5381 29.3584 85.6553 28.7985 85.8272 28.3037C85.9991 27.8089 86.2256 27.387 86.5069 27.0381C86.7933 26.6839 87.1397 26.4157 87.5459 26.2334C87.9522 26.0459 88.4209 25.9521 88.9522 25.9521C89.4834 25.9521 89.9548 26.0563 90.3662 26.2646C90.7777 26.4678 91.1241 26.7594 91.4053 27.1396C91.6866 27.5199 91.8975 27.9756 92.0381 28.5068C92.184 29.0329 92.2569 29.6188 92.2569 30.2646ZM90.8037 30.4287V30.2646C90.8037 29.8428 90.7595 29.4469 90.6709 29.0771C90.5824 28.7021 90.4444 28.374 90.2569 28.0928C90.0746 27.8063 89.8402 27.5824 89.5537 27.4209C89.2673 27.2542 88.9261 27.1709 88.5303 27.1709C88.1657 27.1709 87.848 27.2334 87.5772 27.3584C87.3116 27.4834 87.085 27.6527 86.8975 27.8662C86.71 28.0745 86.5564 28.3141 86.4366 28.585C86.322 28.8506 86.236 29.1266 86.1787 29.4131V31.4365C86.2829 31.8011 86.4287 32.1449 86.6162 32.4678C86.8037 32.7855 87.0537 33.0433 87.3662 33.2412C87.6787 33.4339 88.072 33.5303 88.5459 33.5303C88.9366 33.5303 89.2725 33.4495 89.5537 33.2881C89.8402 33.1214 90.0746 32.8949 90.2569 32.6084C90.4444 32.3219 90.5824 31.9938 90.6709 31.624C90.7595 31.249 90.8037 30.8506 90.8037 30.4287ZM95.9909 22.5615V34.5615H94.5378V22.5615H95.9909ZM100.202 26.1084V34.5615H98.7484V26.1084H100.202ZM98.6391 23.8662C98.6391 23.6318 98.7094 23.4339 98.85 23.2725C98.9958 23.111 99.2094 23.0303 99.4906 23.0303C99.7667 23.0303 99.9776 23.111 100.123 23.2725C100.274 23.4339 100.35 23.6318 100.35 23.8662C100.35 24.0902 100.274 24.2829 100.123 24.4443C99.9776 24.6006 99.7667 24.6787 99.4906 24.6787C99.2094 24.6787 98.9958 24.6006 98.85 24.4443C98.7094 24.2829 98.6391 24.0902 98.6391 23.8662ZM107.826 33.1162V28.7646C107.826 28.4313 107.759 28.1423 107.623 27.8975C107.493 27.6475 107.295 27.4548 107.029 27.3193C106.764 27.1839 106.436 27.1162 106.045 27.1162C105.68 27.1162 105.36 27.1787 105.084 27.3037C104.813 27.4287 104.6 27.5928 104.443 27.7959C104.292 27.999 104.217 28.2178 104.217 28.4521H102.772C102.772 28.1501 102.85 27.8506 103.006 27.5537C103.162 27.2568 103.386 26.9886 103.678 26.749C103.975 26.5042 104.329 26.3115 104.74 26.1709C105.157 26.0251 105.621 25.9521 106.131 25.9521C106.746 25.9521 107.287 26.0563 107.756 26.2646C108.23 26.473 108.6 26.7881 108.865 27.21C109.136 27.6266 109.272 28.1501 109.272 28.7803V32.7178C109.272 32.999 109.295 33.2985 109.342 33.6162C109.394 33.9339 109.469 34.2074 109.568 34.4365V34.5615H108.061C107.988 34.3949 107.93 34.1735 107.889 33.8975C107.847 33.6162 107.826 33.3558 107.826 33.1162ZM108.076 29.4365L108.092 30.4521H106.631C106.219 30.4521 105.852 30.486 105.529 30.5537C105.206 30.6162 104.936 30.7126 104.717 30.8428C104.498 30.973 104.331 31.137 104.217 31.335C104.102 31.5277 104.045 31.7542 104.045 32.0146C104.045 32.2803 104.105 32.5225 104.225 32.7412C104.344 32.96 104.524 33.1344 104.764 33.2646C105.009 33.3896 105.308 33.4521 105.662 33.4521C106.105 33.4521 106.496 33.3584 106.834 33.1709C107.173 32.9834 107.441 32.7542 107.639 32.4834C107.842 32.2126 107.951 31.9495 107.967 31.6943L108.584 32.3896C108.548 32.6084 108.449 32.8506 108.287 33.1162C108.126 33.3818 107.91 33.637 107.639 33.8818C107.373 34.1214 107.055 34.3219 106.686 34.4834C106.321 34.6396 105.91 34.7178 105.451 34.7178C104.878 34.7178 104.376 34.6058 103.943 34.3818C103.516 34.1579 103.183 33.8584 102.943 33.4834C102.709 33.1032 102.592 32.6787 102.592 32.21C102.592 31.7568 102.68 31.3584 102.857 31.0146C103.035 30.6657 103.29 30.3766 103.623 30.1475C103.956 29.9131 104.357 29.736 104.826 29.6162C105.295 29.4964 105.818 29.4365 106.397 29.4365H108.076ZM113.31 27.9131V34.5615H111.865V26.1084H113.232L113.31 27.9131ZM112.967 30.0146L112.365 29.9912C112.37 29.4131 112.456 28.8792 112.623 28.3896C112.789 27.8949 113.024 27.4652 113.326 27.1006C113.628 26.736 113.987 26.4548 114.404 26.2568C114.826 26.0537 115.292 25.9521 115.803 25.9521C116.219 25.9521 116.594 26.0094 116.928 26.124C117.261 26.2334 117.545 26.4105 117.779 26.6553C118.019 26.9001 118.201 27.2178 118.326 27.6084C118.451 27.9938 118.513 28.4652 118.513 29.0225V34.5615H117.06V29.0068C117.06 28.5641 116.995 28.21 116.865 27.9443C116.735 27.6735 116.545 27.4782 116.295 27.3584C116.045 27.2334 115.737 27.1709 115.373 27.1709C115.013 27.1709 114.685 27.2464 114.388 27.3975C114.097 27.5485 113.844 27.7568 113.631 28.0225C113.422 28.2881 113.258 28.5928 113.138 28.9365C113.024 29.2751 112.967 29.6344 112.967 30.0146ZM124.568 26.1084V27.2178H119.997V26.1084H124.568ZM121.544 24.0537H122.99V32.4678C122.99 32.7542 123.034 32.9704 123.122 33.1162C123.211 33.262 123.326 33.3584 123.466 33.4053C123.607 33.4521 123.758 33.4756 123.919 33.4756C124.039 33.4756 124.164 33.4652 124.294 33.4443C124.43 33.4183 124.531 33.3975 124.599 33.3818L124.607 34.5615C124.492 34.598 124.341 34.6318 124.154 34.6631C123.971 34.6995 123.75 34.7178 123.49 34.7178C123.136 34.7178 122.81 34.6475 122.513 34.5068C122.216 34.3662 121.979 34.1318 121.802 33.8037C121.63 33.4704 121.544 33.0225 121.544 32.46V24.0537Z" fill="#666666"/>
</svg>
