<svg width="203" height="40" viewBox="0 0 203 40" fill="none" xmlns="http://www.w3.org/2000/svg">
<path d="M0 20.8279C0 9.73033 8.99632 0.734009 20.0939 0.734009H20.9805C31.5883 0.734009 40.1877 9.33336 40.1877 19.9412V19.9412C40.1877 30.549 31.5883 39.1484 20.9805 39.1484H0V20.8279Z" fill="#7242EE"/>
<path d="M57.3748 14.9124C57.3748 6.67652 50.6983 0 42.4624 0H41.8636C33.9584 0 27.55 6.40844 27.55 14.3136V14.3136C27.55 22.2188 33.9584 28.6273 41.8636 28.6273H57.3748V14.9124Z" fill="#D5C6FA"/>
<path opacity="0.5" fill-rule="evenodd" clip-rule="evenodd" d="M31.7816 4.15326C29.1683 6.74655 27.55 10.3411 27.55 14.3136C27.55 21.0146 32.1547 26.6401 38.3725 28.1985C39.5367 25.7217 40.1874 22.9557 40.1874 20.0378C40.1874 13.4349 36.8556 7.61028 31.7816 4.15326Z" fill="#AA8EF5"/>
<path d="M73.3222 18.6297H77.3975C77.3389 17.6836 77.1044 16.87 76.6939 16.1888C76.2834 15.4887 75.7459 14.9116 75.0813 14.4575C74.4363 13.9844 73.6935 13.6344 72.8531 13.4073C72.0321 13.1802 71.1721 13.0667 70.273 13.0667C69.0415 13.0667 67.947 13.2654 66.9892 13.6627C66.0314 14.0601 65.2203 14.6183 64.5557 15.3373C63.8911 16.0374 63.3829 16.8794 63.0311 17.8634C62.6988 18.8284 62.5327 19.8785 62.5327 21.0138C62.5327 22.1113 62.7183 23.1236 63.0897 24.0508C63.4611 24.959 63.9791 25.7443 64.6436 26.4065C65.3082 27.0688 66.1096 27.5891 67.0478 27.9676C68.0056 28.3271 69.0513 28.5068 70.185 28.5068C72.1983 28.5068 73.8499 27.996 75.14 26.9742C76.43 25.9524 77.2119 24.467 77.4855 22.5181H73.4688C73.3319 23.4264 72.9899 24.1548 72.4426 24.7036C71.9148 25.2334 71.1525 25.4983 70.1557 25.4983C69.5107 25.4983 68.9634 25.3564 68.5138 25.0725C68.0642 24.7887 67.7026 24.4292 67.429 23.994C67.1749 23.5399 66.9892 23.0385 66.8719 22.4897C66.7546 21.941 66.696 21.4017 66.696 20.8719C66.696 20.3232 66.7546 19.7745 66.8719 19.2257C66.9892 18.6581 67.1847 18.1472 67.4583 17.6931C67.7515 17.22 68.1229 16.8416 68.5724 16.5578C69.022 16.255 69.5791 16.1036 70.2436 16.1036C72.0223 16.1036 73.0485 16.9457 73.3222 18.6297Z" fill="white"/>
<path d="M79.6616 17.9769C79.7202 17.0308 79.9645 16.2456 80.3945 15.6211C80.8246 14.9967 81.3718 14.4953 82.0364 14.1169C82.701 13.7384 83.4437 13.4735 84.2647 13.3221C85.1052 13.1519 85.9457 13.0667 86.7861 13.0667C87.5484 13.0667 88.3205 13.1235 89.1024 13.237C89.8842 13.3316 90.5977 13.5303 91.2427 13.833C91.8877 14.1358 92.4155 14.5615 92.8259 15.1103C93.2364 15.6401 93.4416 16.3496 93.4416 17.2389V24.8739C93.4416 25.5361 93.4807 26.17 93.5589 26.7755C93.6371 27.381 93.7739 27.8351 93.9694 28.1379H89.7474C89.6692 27.9108 89.6008 27.6837 89.5422 27.4567C89.5031 27.2107 89.4738 26.9647 89.4542 26.7187C88.7896 27.381 88.0078 27.8446 87.1087 28.1095C86.2095 28.3744 85.2909 28.5068 84.3526 28.5068C83.6294 28.5068 82.9551 28.4217 82.3296 28.2514C81.7041 28.0811 81.1568 27.8162 80.6877 27.4567C80.2186 27.0972 79.8472 26.643 79.5736 26.0943C79.3195 25.5456 79.1924 24.8928 79.1924 24.1359C79.1924 23.3034 79.339 22.6222 79.6322 22.0924C79.945 21.5436 80.3359 21.1084 80.805 20.7868C81.2937 20.4651 81.841 20.2286 82.4469 20.0772C83.0724 19.9069 83.6978 19.7745 84.3233 19.6799C84.9488 19.5852 85.5645 19.5096 86.1704 19.4528C86.7764 19.396 87.3139 19.3109 87.783 19.1973C88.2521 19.0838 88.6235 18.923 88.8971 18.7148C89.1708 18.4878 89.2978 18.1661 89.2783 17.7498C89.2783 17.3146 89.2001 16.974 89.0437 16.7281C88.9069 16.4632 88.7114 16.2645 88.4573 16.132C88.2228 15.9807 87.9394 15.886 87.6071 15.8482C87.2943 15.7914 86.9523 15.7631 86.5809 15.7631C85.76 15.7631 85.1149 15.9333 84.6458 16.2739C84.1767 16.6145 83.9031 17.1822 83.8249 17.9769H79.6616ZM89.2783 20.9571C89.1024 21.1084 88.8776 21.2314 88.6039 21.326C88.3498 21.4017 88.0664 21.468 87.7537 21.5247C87.4605 21.5815 87.1478 21.6288 86.8155 21.6666C86.4832 21.7045 86.1509 21.7518 85.8186 21.8085C85.5059 21.8653 85.1931 21.941 84.8804 22.0356C84.5872 22.1302 84.3233 22.2627 84.0888 22.433C83.8738 22.5843 83.6978 22.783 83.561 23.029C83.4242 23.275 83.3558 23.5872 83.3558 23.9656C83.3558 24.3251 83.4242 24.6279 83.561 24.8739C83.6978 25.1198 83.8835 25.3185 84.1181 25.4699C84.3526 25.6024 84.6263 25.697 84.939 25.7537C85.2518 25.8105 85.5743 25.8389 85.9066 25.8389C86.7275 25.8389 87.3628 25.7064 87.8123 25.4415C88.2619 25.1766 88.5942 24.8644 88.8092 24.5049C89.0242 24.1265 89.1512 23.748 89.1903 23.3696C89.249 22.9912 89.2783 22.6884 89.2783 22.4613V20.9571Z" fill="white"/>
<path d="M96.6732 13.4641V28.1379H100.837V21.5247C100.837 20.8625 100.905 20.2475 101.042 19.6799C101.179 19.1122 101.403 18.6202 101.716 18.204C102.048 17.7688 102.478 17.4282 103.006 17.1822C103.534 16.9362 104.179 16.8132 104.941 16.8132C105.195 16.8132 105.459 16.8321 105.733 16.87C106.006 16.8889 106.241 16.9173 106.437 16.9551V13.2086C106.104 13.114 105.801 13.0667 105.528 13.0667C105 13.0667 104.492 13.1424 104.003 13.2938C103.514 13.4451 103.055 13.6627 102.625 13.9466C102.195 14.2115 101.814 14.5426 101.482 14.94C101.149 15.3184 100.885 15.7347 100.69 16.1888H100.631V13.4641H96.6732Z" fill="white"/>
<path d="M117.757 19.2257H110.984C111.003 18.9419 111.062 18.6202 111.16 18.2607C111.277 17.9012 111.463 17.5606 111.717 17.2389C111.99 16.9173 112.342 16.6524 112.772 16.4442C113.222 16.2172 113.779 16.1036 114.443 16.1036C115.46 16.1036 116.212 16.3685 116.701 16.8984C117.209 17.4282 117.561 18.204 117.757 19.2257ZM110.984 21.7802H121.92C121.998 20.6449 121.9 19.5569 121.627 18.5162C121.353 17.4755 120.903 16.5483 120.278 15.7347C119.672 14.921 118.89 14.2777 117.932 13.8047C116.975 13.3127 115.851 13.0667 114.561 13.0667C113.407 13.0667 112.352 13.2654 111.394 13.6627C110.456 14.0601 109.645 14.6088 108.961 15.3089C108.277 15.9901 107.749 16.8037 107.377 17.7498C107.006 18.6959 106.82 19.7177 106.82 20.8152C106.82 21.9505 106.996 22.9912 107.348 23.9372C107.72 24.8833 108.238 25.697 108.902 26.3781C109.567 27.0593 110.378 27.5891 111.336 27.9676C112.293 28.3271 113.368 28.5068 114.561 28.5068C116.281 28.5068 117.747 28.1284 118.959 27.3715C120.17 26.6147 121.07 25.3564 121.656 23.5967H117.991C117.854 24.0508 117.483 24.486 116.877 24.9022C116.271 25.2996 115.548 25.4983 114.707 25.4983C113.535 25.4983 112.635 25.205 112.01 24.6184C111.384 24.0318 111.042 23.0858 110.984 21.7802Z" fill="white"/>
<path d="M124.565 13.4924V33.5306H126.412V25.3564H126.471C126.666 25.8862 126.94 26.3498 127.292 26.7471C127.663 27.1445 128.083 27.4756 128.552 27.7405C129.022 28.0054 129.53 28.2041 130.077 28.3365C130.624 28.469 131.172 28.5352 131.719 28.5352C132.872 28.5352 133.869 28.3365 134.709 27.9392C135.57 27.5229 136.283 26.9647 136.85 26.2646C137.417 25.5456 137.837 24.7225 138.111 23.7953C138.384 22.8492 138.521 21.8558 138.521 20.8152C138.521 19.7745 138.384 18.7905 138.111 17.8634C137.837 16.9173 137.417 16.0942 136.85 15.3941C136.283 14.6751 135.57 14.1074 134.709 13.6911C133.869 13.2748 132.872 13.0667 131.719 13.0667C130.488 13.0667 129.383 13.3505 128.406 13.9182C127.448 14.4669 126.754 15.2522 126.324 16.2739H126.266V13.4924H124.565ZM136.674 20.8152C136.674 21.572 136.576 22.3289 136.381 23.0858C136.205 23.8237 135.912 24.486 135.501 25.0725C135.11 25.6591 134.602 26.1416 133.977 26.5201C133.351 26.8796 132.599 27.0593 131.719 27.0593C130.742 27.0593 129.911 26.8796 129.227 26.5201C128.562 26.1416 128.015 25.6591 127.585 25.0725C127.174 24.486 126.871 23.8237 126.676 23.0858C126.5 22.3289 126.412 21.572 126.412 20.8152C126.412 19.9826 126.49 19.1879 126.647 18.431C126.823 17.6741 127.116 17.0119 127.526 16.4442C127.937 15.8766 128.484 15.4225 129.168 15.0819C129.852 14.7413 130.703 14.571 131.719 14.571C132.599 14.571 133.351 14.7602 133.977 15.1386C134.602 15.4981 135.11 15.9712 135.501 16.5578C135.912 17.1443 136.205 17.8161 136.381 18.5729C136.576 19.3109 136.674 20.0583 136.674 20.8152Z" fill="white"/>
<path d="M141.225 17.9769H143.072C143.111 16.7848 143.502 15.9239 144.245 15.3941C144.987 14.8453 145.945 14.571 147.118 14.571C147.665 14.571 148.173 14.6183 148.643 14.7129C149.131 14.7886 149.551 14.94 149.903 15.167C150.275 15.3941 150.558 15.7063 150.754 16.1036C150.969 16.4821 151.076 16.974 151.076 17.5795C151.076 17.9769 151.017 18.2986 150.9 18.5445C150.802 18.7905 150.656 18.9892 150.46 19.1406C150.265 19.273 150.021 19.3676 149.727 19.4244C149.434 19.4812 149.092 19.5285 148.701 19.5663C147.704 19.6798 146.717 19.8028 145.74 19.9353C144.782 20.0488 143.912 20.257 143.131 20.5597C142.368 20.8625 141.753 21.3071 141.283 21.8937C140.814 22.4613 140.58 23.2561 140.58 24.2778C140.58 25.0158 140.707 25.6591 140.961 26.2078C141.235 26.7377 141.596 27.1823 142.046 27.5418C142.515 27.8824 143.052 28.1284 143.658 28.2798C144.284 28.4501 144.948 28.5352 145.652 28.5352C146.395 28.5352 147.03 28.469 147.558 28.3365C148.105 28.2041 148.584 28.0149 148.994 27.7689C149.424 27.5229 149.806 27.2202 150.138 26.8606C150.49 26.4822 150.832 26.0565 151.164 25.5834H151.223C151.223 25.9619 151.242 26.3119 151.281 26.6336C151.34 26.9363 151.447 27.2012 151.604 27.4283C151.76 27.6554 151.975 27.8351 152.249 27.9676C152.542 28.0811 152.923 28.1379 153.392 28.1379C153.646 28.1379 153.852 28.1284 154.008 28.1095C154.184 28.0906 154.379 28.0622 154.594 28.0243V26.5201C154.418 26.5957 154.223 26.6336 154.008 26.6336C153.285 26.6336 152.923 26.2741 152.923 25.555V17.7782C152.923 16.7943 152.757 15.9996 152.425 15.3941C152.092 14.7697 151.662 14.2872 151.135 13.9466C150.607 13.606 150.011 13.3789 149.346 13.2654C148.682 13.1329 148.017 13.0667 147.353 13.0667C146.473 13.0667 145.672 13.1613 144.948 13.3505C144.225 13.5397 143.59 13.833 143.043 14.2304C142.515 14.6277 142.095 15.1386 141.782 15.7631C141.469 16.3875 141.283 17.1254 141.225 17.9769ZM151.076 20.134V22.4613C151.076 23.1804 150.929 23.8237 150.636 24.3914C150.363 24.959 149.981 25.4415 149.493 25.8389C149.024 26.2362 148.467 26.539 147.822 26.7471C147.177 26.9553 146.502 27.0593 145.799 27.0593C145.369 27.0593 144.948 26.9931 144.538 26.8606C144.127 26.7282 143.766 26.539 143.453 26.293C143.14 26.0281 142.886 25.7253 142.691 25.3848C142.515 25.0252 142.427 24.6184 142.427 24.1643C142.427 23.4453 142.642 22.8965 143.072 22.5181C143.521 22.1208 144.088 21.818 144.772 21.6099C145.457 21.4017 146.209 21.2504 147.03 21.1557C147.871 21.0422 148.682 20.9192 149.464 20.7868C149.718 20.7489 150.011 20.6827 150.343 20.5881C150.675 20.4935 150.9 20.3421 151.017 20.134H151.076Z" fill="white"/>
<path d="M159.536 13.4924V9.09314H157.689V13.4924H155.05V14.9967H157.689V25.0158C157.67 26.2646 157.904 27.1256 158.393 27.5986C158.882 28.0527 159.742 28.2798 160.973 28.2798C161.247 28.2798 161.52 28.2703 161.794 28.2514C162.068 28.2325 162.341 28.223 162.615 28.223V26.7187C162.087 26.7755 161.559 26.8039 161.032 26.8039C160.367 26.766 159.947 26.5863 159.771 26.2646C159.614 25.924 159.536 25.4604 159.536 24.8739V14.9967H162.615V13.4924H159.536Z" fill="white"/>
<path d="M165.28 13.4924V28.1379H167.127V20.3326C167.127 19.5569 167.264 18.8473 167.538 18.204C167.811 17.5417 168.192 16.974 168.681 16.501C169.189 16.028 169.785 15.6684 170.469 15.4225C171.154 15.1576 171.916 15.044 172.756 15.0819V13.2938C171.388 13.237 170.206 13.5303 169.209 14.1736C168.231 14.817 167.508 15.7347 167.039 16.9267H166.98V13.4924H165.28Z" fill="white"/>
<path d="M180.404 14.571C181.284 14.571 182.056 14.7507 182.721 15.1103C183.385 15.4698 183.932 15.9428 184.362 16.5294C184.812 17.116 185.144 17.7877 185.359 18.5445C185.594 19.2825 185.711 20.0394 185.711 20.8152C185.711 21.5909 185.594 22.3573 185.359 23.1141C185.144 23.8521 184.812 24.5144 184.362 25.1009C183.932 25.6875 183.385 26.1605 182.721 26.5201C182.056 26.8796 181.284 27.0593 180.404 27.0593C179.525 27.0593 178.753 26.8796 178.088 26.5201C177.424 26.1605 176.866 25.6875 176.417 25.1009C175.987 24.5144 175.655 23.8521 175.42 23.1141C175.205 22.3573 175.098 21.5909 175.098 20.8152C175.098 20.0394 175.205 19.2825 175.42 18.5445C175.655 17.7877 175.987 17.116 176.417 16.5294C176.866 15.9428 177.424 15.4698 178.088 15.1103C178.753 14.7507 179.525 14.571 180.404 14.571ZM180.404 13.0667C179.251 13.0667 178.225 13.2748 177.326 13.6911C176.446 14.1074 175.703 14.6656 175.098 15.3657C174.492 16.0658 174.032 16.8889 173.72 17.835C173.407 18.7621 173.25 19.7555 173.25 20.8152C173.25 21.8748 173.407 22.8776 173.72 23.8237C174.032 24.7509 174.492 25.5645 175.098 26.2646C175.703 26.9647 176.446 27.5229 177.326 27.9392C178.225 28.3365 179.251 28.5352 180.404 28.5352C181.558 28.5352 182.574 28.3365 183.454 27.9392C184.353 27.5229 185.105 26.9647 185.711 26.2646C186.317 25.5645 186.776 24.7509 187.089 23.8237C187.402 22.8776 187.558 21.8748 187.558 20.8152C187.558 19.7555 187.402 18.7621 187.089 17.835C186.776 16.8889 186.317 16.0658 185.711 15.3657C185.105 14.6656 184.353 14.1074 183.454 13.6911C182.574 13.2748 181.558 13.0667 180.404 13.0667Z" fill="white"/>
<path d="M190.275 13.4924V28.1379H192.122V19.5947C192.142 18.8757 192.259 18.2134 192.474 17.6079C192.709 16.9835 193.021 16.4537 193.412 16.0185C193.823 15.5644 194.311 15.2143 194.878 14.9683C195.465 14.7034 196.129 14.571 196.872 14.571C197.615 14.571 198.23 14.6845 198.719 14.9116C199.227 15.1386 199.628 15.4508 199.921 15.8482C200.214 16.2456 200.42 16.7186 200.537 17.2673C200.654 17.7971 200.713 18.3742 200.713 18.9987V28.1379H202.56V18.7148C202.56 17.8444 202.472 17.0592 202.296 16.3591C202.12 15.659 201.817 15.0724 201.387 14.5994C200.957 14.1074 200.38 13.729 199.657 13.4641C198.954 13.1992 198.074 13.0667 197.019 13.0667C195.943 13.0667 194.956 13.3411 194.057 13.8898C193.158 14.4196 192.533 15.1292 192.181 16.0185H192.122V13.4924H190.275Z" fill="white"/>
</svg>
